<mxfile host="65bd71144e">
    <diagram id="ZC6PafSODY_O-T9ZUMLZ" name="Page-1">
        <mxGraphModel dx="1052" dy="720" grid="1" gridSize="10" guides="1" tooltips="1" connect="1" arrows="1" fold="1" page="1" pageScale="1" pageWidth="850" pageHeight="1100" math="0" shadow="0">
            <root>
                <mxCell id="0"/>
                <mxCell id="1" parent="0"/>
                <mxCell id="2" value="http://ics2o.mths.ca" style="swimlane;whiteSpace=wrap;html=1;" parent="1" vertex="1">
                    <mxGeometry x="40" y="280" width="816.38" height="480" as="geometry"/>
                </mxCell>
                <mxCell id="5" value="" style="shape=image;verticalLabelPosition=bottom;labelBackgroundColor=default;verticalAlign=top;aspect=fixed;imageAspect=0;image=data:image/png,iVBORw0KGgoAAAANSUhEUgAAAggAAAElCAYAAACBJhoWAAAAAXNSR0IArs4c6QAAIABJREFUeF7sfQd8ZVWd//eW12t6z6RMS6YXYOi9Su8ooIjuWldXXf+yKpZVXBbUleLiyipFQVBBkSoIwiAwMwzTS6ZlWnryer3vlv/nd25e8pJJnUmGTOb85pNPJu+de+4533veO9/zq8Jfm35hgAtHgCPAEeAIcASOQwTUtII3H/gDtr+yHoZhwGWT4XVYoRsGIkkFJRWlWHTLhSg/aRYkq4yuTTvw7j1PQ02r6IkmoagG3EX5uOqef4a3PG9MCKZiSWz7zp/x5dPOh1WWR70mqqTwdlEY81aciOpINSCK5jWGDkMQQP/ey9uOqJAa0Fe8J4q/fPMR9Ow5wF63SgL8LhskUUBpbT2+8+zbI95beKfnfzlBGPXx8AYcAY4AR4AjMF0RSEWT+NNXH8W+tbsBA7DKAnwOK9KqBoskwW6VUXHybCz42BnIqy3Bpt+8iU1ProSiaOiJpWBAQP3pDbj8Rx+D1WkbFSalJ4Glf4rBI1oHthUE828iAPR/TUMGBlY2bUD57ErMPPkSyKK97xqjuwuKw0Am343N1btgCOZ2TkQnuL8bz93xW3Q0tbA52SQRfrcNokDdizjxtsvx8S/+DycIoz4t3oAjwBHgCHAEjmsElHgaT/zzQ+jYdpBtqLRV+51W2K0ShN6NW5BE1J23EA3XnoJ37nkWPU2tCMRSSKt0gYAVt52NMz9/sXnxCOLdp2De6wmTCIgS4HAA/nzA7QJcbkC2APubgdaW/l6obXEJUF4J2Owmgdi2GXoyiu2XFSHsTrC2mZSCnX/fgr/+6Bmko6ZGwSqJyCdyQOxAEDDjzEac983bsKzwo5wgHNernk+eI8AR4AhwBMaEgBJL4Y9ffRT71+zqa2+XRfhdVnbqzorFZUfJ4hq0vLMd6YyG7mja3IjdNtz00GdQ2lg54v38rRLm7i2B4PMDZGLIag6yV4VDwI7tgGL2O0CorSQBdG0wgKQb2HilFyp07F65FW8+8BICzV1Mi0AiSwIKyKwgmeMvXz4TZ/3wo3BZ87HEfz0nCGNaGbwRR4AjwBHgCBz3CKRjKfzt3uew+S/v922ydPDOc9lgs0h9rwlEGHo34Vgqg0gyw7CrOWkWrv/5p/u0DrmAepMuzGybAasqM7+B4cUAtm0BAj0jPg9DBDZc6samzTvwzv+9hs6mVmgZre8aSQAKPHbIveSgdGkdzvr+TbA4rLCLPk4QjvvVzgHgCHAEOAIcgXEhkElnsOEP77HTuJo2N346uOe7rMhoOnPys1vkPhJADo3dkRRU3YBst+D6Bz6FqqV1h9xTMAR4kk6UdhQiL+0doJUY0DiVAjauAzLKsOOme/5x+1q8sGsdoi09A4gB0xyIAjMrZMlB5clzcMr/uwo2j4P1OWEEQRRk5Ftq4JILIQs26IaKpBZCWG1hv6ez2EQPHJKfTTGpBZHWY9N5unxuHAGOwHGIgCzY4bWUsZlrhoJwJsf2PQQeTqkAdsnL3olk2qAaA73npyqEdGqnsVtFFzQjjbgWYPMdSkhFv3/Nbrz4vacRaQuyJrTpuu0yEooKmyzBY7fCIIcFAKRFiKZU9v/Shkrc/MjnIVmGjlDY+Y8mbH1oPW666kYsaJzfTxQUBehoM30PVJOYDDk2AC9tWIe7X3oWPqcV4iATBY3dY7fA67Qyf4jq0xqw4itXwOY1yQHJhBAEn6UCc9znQxIsh4yTgGlPbcb+5BroRr9aY6oujvGMiz4wtc5TUGirH3BZt7ILzfF3j5kPxHjmzNtyBDgCxycCHrkE872Xs8nTQWh9+A8jAlHjPBll9vmszebIc4iqHVMeOK9cinr3WbCLnr6x0mG3JbkeLakNMKAPOYdIWwh/+vpjaN96kJkXSHtAoZBWWYRFEhGIp1hYJFkbuplToAByZrzkezdg/sVLh3RYfP/Z1fjd138DWZZx6vITccvVN6DBlw+0HByRGNAAVU3D8xvW4uG3/gqyHGQdKOm9Xh9ENkav3QqrVcbMixZj+ecuhmVQdMUREwTSGCz0XtUHmmqkmfZAFCTQBpqV1tQm7Eu8N+UXyFgHSCxzvvcKuOUidkl24QgwnTyiaie2RP4y7IIa6314O44AR4AjMBUQGC9BmOE4CaX2Rjb0rdEX2HfiVBaPXMy+07NCB1pBEPv8AEKZg9gWfWnYKeiajj986f+w972dMHSDEQU6tLvtFrYZkzgsMjojSei9iQN8FXm4/emvMXv/YHnt5y/j5Z++yF72O2S47DbcespZOHvuIjittiH9F3RdR08shgf/9hI+2L/TjEjoFfqvRRaZ1oBIC4lss2DeTadhwcfOhNj7Wu44jpggzHKfi0KraUfpTDdhd/ytvv6LrLMw031W398fhH6HtB6dymtkzGMrtTWg1nUaa5/QgtgYfobRhCX+m2ATXez1vYl30ZbaPOY+eUOOAEeAIzBVERgvQZiq8xhuXEQOiCTQ9/iO6BvoyexmpuP5nsshizZmJlgTfBSaMbxaX1c1vPjdp7H1pXV9jop0PwtFCbjtjDAEYmmkVVMTQX/f9tRXUDTTNN3kyu+/9SRWPfUuM1n4nRZGCArcFFJpwbIZs3HarIUocvsgiSJUXUdLsBOPvv0WVu7YBZtFZGYFik5wWuVex0kglVGZX4TDKsOR58Jp37oOpYtrh31UR0wQlvpuhE0y1TFrQ09A0eN9N6PT9Il5t0EUTLayNfICwmrrgMG45WIQkbCKTqT0CDrTO5j6aiih/gqs9fBbKlmfxEi70jtAWotccUkFfYkiTDuZgAr7QuYf0Rz/BzK9tjDSAhRY6+C3VrGYVmrbpVDoyuh5oRb5roVTMjNirQ//vs/PQhasWJ53C2isZHfbEn3+WPuc8PFyBDgCHIFDEBgvQbCLftgk87AUV7sgCVbYJR/7W9XJtt+ds1cI8FrKe/82EM609X0PS4LM9giPpYxpp3uUZoQyZta/weIQ/SiyzYJDyoMBDTG1G+2pLdBh2v2HE6voxjL/jWyvoGs2RZ7ta1pqm4da1yns76boqwhk9o7Yl5rK4NW7/4SNf17d1460CV6HhWkTwok0Ekq/qeLiO6/DwitPHNinATz86Yew/c2tcFhEZq4gbUCx184IQVaIaDjJh4HyJek6DnTF0B5J9mV7nF3mgyxLCMWTLBsjEQPZIqHu/MVYcvt5sOeZz2c4OWKCQOYF2nhJaENsTryDhBbou59FJIcHU82h6WnoMP0QLIITjd6L4ZTyB4yNWFo0046t0RcHqOdpgcxwngSzv37RDBWd6e3stJ6Vue4LkWetZtevD/0e87yXMQJCsi78FFJaBH5LFepdZ/S9nr1W0RNMC5K7AE/Iu5UtbpJVgV+xfk/Iu4WZUJJaGOvDTw8Y02Lf9XBIPqiGwhgnF44AR4AjcKwjMF6CMNgHgb6rF/muZjDQ9+wHoSf6nPd8lnI0ej7C3gsq+7E99gr7f5l9ASodS5jje66Q4/uO2N/69ho67M1xXwi/tfKQ0EDD0HAwuQ4HU+tYF3mWaszxXNDX3XuB/4NddKPMvpC9FlHb0KPs6Xu/3L4IM5zmBr4u9BQ7yI4mFAZJJGHLC2v7mtIuWOi1I6WofY6K9Obia07CBXdcAyHHHECE4v7rf4r965tZIiYyCZCZgggCaRI03WC+BElFZZt+1seACEJbOMHSJRd4bKgs8LD3yPRAZgyKUmi45mQUzC6HKEujTePInRRLbA2o61W1Z+9GmyY5pETVdpDdJlerQG3oYROxyGoeqF1CC8ErlzDmRxLNdLDTN23G2QdKi4AIRE96D2OE9HqWMLQmN2JfchW7tp8gGEhp4b4IA/aAw08xcjLP+xF2yid1UUBpZiQm31rDHC3ptQ9CT/ZpJk7M+0SfAyYtJhrTSXmfZH4WQ9mlFjDfBFJVAWuCjx2i4Rj1qfAGHAGOAEdgiiFwpASB9oSF3mvgkvNBm/bq0GNMI0BCh79ytkEbWBd6mm3CJba5zIxL3/u0hwQzByDBggJbLfvupoPehsgz0I0M++4mR3kSOtx1K3sgQUa5YxFsopu9vjH8LNNa5FlmYG4OQXg38PAhWmOLaIdXLoNTKkSZvZEdEONqDzZGyJQ8NkkE43jhziex5x9NfRf4HGQqAEKJfjNFxeIa3Pg//wzZ1h/NYOg67r7wh0i0BOC0mVkayUxR5HUw7QClbvY7bVBUbQBB2N8VQ08syUwSpX4XHDYLXMU+1J63EDPOnA9/bfGQvgbDzeiINQj0oOpcp6LYNqdPU5B7M7ahK83MQTFLFIptc1HvOp01owe5K/Y62/hJlbTAezU7fZNkfRYWeK9kzoCkfSAzRdYblh48vUckgRba6uBjTK2UJQjUB23mbcnN6FSaWBtFT2Ke9xJ45FIQozWJgBl+Q6aLBs/F7P9kbiAtBslS3019BOH90G9YnyvyP8UWbkDZi6bYqwPwJY0FecOSkAYjqU/vMM+xfVx4K44AR+BYRmAiCEKFfRGqe0/ju+MrmfaXJGuyJc3C2tBv2WvL/B9loYakLaDNPWsmIK1CjXMFa3Mw+QEOJNcyckAkgYQ0C1kNAIWgz3SdyV5vTW1EMLOffc/Pcp3T9yjWhB4/hCCQuWNer0aDGqa1KLZEX0R6DNqD3Gcc7Qzj6c8/jO7d7exlCn+k0EeKZMie+r2lftz21Fdh9/Q79ZMvw91nfgdCor+dTRZZQiOWTyGaZEmZVE2Hw9ofPdjSE0NSyaA83w2nzQJHoQcX/OST8Jbnj5raeai1ecQEIdspbdZVjhOYkwc9VDpd5wqdyun0nqEN2nMpi6clUkCLgV7LiksqhEsuYH/S5kv5FWihkAylzq9yLGcqKJItkRcQUVsHEARik9uiL/f1TwtmKbM1mc6FtJhyhcZG7JFIwOrgo30MdzB4YyYIOf4JQz0A/hpHgCPAETgWEJgIgkAm5UW+a9h0TTLwBMuVsMRnpvMNKPvQFPsryI9sYa85oiO9/RBnbzoY0oGS/NA2R/6M3H2Avru70jvRnd7NnOIpL81w4YnD4U4H0nrXmSCfMtM8LbCD5LrQ78cdvh5uC+Cxm+9DPBBDnsvKIgm6ImaoI4nd68TtT38F7mLzYMywiadx/3nfZdUgs+K0SqzKoq4bLGySCkVphsGcDrPSEYojnVFRWehlaZPnXHESTviCeeg9HJkwgpB7czpZ51trUe1czmwYWSE70IHk+332e3popIIfySs01zZFtqEtkYFOf0W22X0McX9iNYtVzdUgbI++zFRTWaGcDY2eS0bFisjL+8HfDLsY+k0MAwkIddzvDQu8H3y8zyly1JvyBhwBjgBHYIoiMBEEgaZGZCDrrPh+6LcgJ8BKx2I2642RZxFXu1Fia2Sa6dGENn/SAtOeQ75fduYwPzA9Mankm+KvIqTs7/N5GK3f3PdzyQdpM8gpfbyy9eX1ePvHf4ZN1djwOsP9oY4WuwWf+N1XkF9t+vIxHJ5djZd+8PsB/vKkfTBzKRiMGGiazpIfWXJ8CdqDMSiqjpryfDRccxIWffwcVn76cOWICAI5+lU5lrJ7k7qeYl1zhR5ahX0xqpzL2csxtQubIn8COf2RH8JYCALZgeZ5L2XXR9QObIk8N+AeZNogZ0OSfYlVTI2USxA2hP84wGkylyCQ5iKmDR2bSw9hV/zNYTNoZedAWogNgxKGLPZdx/weiPisDj5yuM+GX8cR4AhwBKYMAhNFEHK/s8mMSxswaZ5TWhTrwr9j8831baOotuEcAzN6Grvjb7JraL+xiE6QCbvYNrvP9yAL4J74P9CR3joknuQDUWidyd4jwpGrcSCTN5EPEsqNsCbHd2I8D+eNbz+Bg+80sQ1+QKijJOITv/0SimebURyaquGXV/0Xwi39zv70OvkvuOz95gRyUCTnxWyaZGrTFozB4bLj6h9/ghVcynV8HM9Ys22PiCD45Ao0es3T+HCbvVsqwgLflaxNONPKSMQ8z2XwWshGb4AYZK6JgRZGuX0Ba0+erLQATsi7mT1+ckohM0Wu5HrKZp1QRiIIZP4YyWQxVhCzLJjmTb4SWf8KARJOzLuVmUbIV4IyiHHhCHAEOALHOgITRRBMk8INvXtCC6hf+r6kEPfsZk8h5OSXQNKe2ormxD9GgE/ozV9g7kN0ECUhslBgrWXZbkmy5oihOsrVElAUG+X0yQo5nJPjOQkRBDI9k6/beOWt/3ga+/6+hV2WW7iJ/r7+wU+j9uTZ7L1QSw9+cdl/HtI91Xiw52gDkukMrBZpQNhjeziBK+++BTPPWTBkIqXxjvmICAL5GVAeBHoQJEQA9ifWIKZ1MS9Tn6UMtc5T+/Jx742/i7b0ZubQmD31hzItzOZEDoR20Yv5vsthEcxQxqx6nsJfyNRAav/dsTfRpexk77ulYkZQspEHZK6gBTISQaDrSCNBmgl6yFsiL7JoCxKKoGjwXMR8KBJqgKm7Zq0V4D3jWggWM8yRfCZoHBX2JcyEwh5o5gCLj6XsCQ2eC0FaChLCoiW1frzPhLfnCHAEOAJTDoFcgqDqKXT2fg8PHijZ6ik18XCplumkv8R/A8gfLFfIfExm5KwsZUnn3OwASRFt2Zo+XrkcczznscgCIg8U4n6C/2aW+4a+m9f3RkFQP/RdTv3QPbP+aD7mpNifwI8cz3NJAOXVIb+1mNrJ7j/TdXbvgZZ8JJrRFHvtsJ7N6vtfQNOfzNwIVP65J9afv+fcf7scy28yHfc/eOptvHr3nwfcgyIfCnOKKpGDo0kQ5L4sjXRB1SVLccaXLh1TCONYJnFEBIFuQGaGuZ4LB8SemuoZeiT9tiAKN9wUeY7Z9GlDJy1C1hmR7EikHSDHkGw9hwPJD3AwacaQ0sMjj1JimSRkoyKPVmpPJ3ZaFEQ+2tMmOxuNIJj9XdrnSGmmADXglgohCBIzl5CdyZ4AGt9QIVx3A2A1CUI2zJHmt9h3bV8IJUvLSf96k0LRYiZzykj+FWN5QLwNR4AjwBGYCgjkEoSRxpN1Jh+pFgOp82e5z+7rhpwJSRObK0XW2ah3n84OmxTBFst0sj2A8u7Qd21aj7MMtrSnkM/bHPe5bN+h/YRC4WkfoqRJRBJIdsReR4+ye9gwx5mus1j7rFAeG9qPsvsYEZUPwr8b1nF9tGe088W1eO/HpkaZkhp1hlN9KflmnzMfV/znzcwB8fGP389KMucK+RoUeW2slkM8lYHPZeslCDkaBEHA2T+4CZUrKKJwYuSICQINg0IGKRcC2d0H16+mjZNO6Dtir7HEQVkh9kehKWRqyNYvYMAZCjrTO7E38c6AGdI9KDQyWzUx+yZ5wramNgzwch2NIJhjLmHOjVlnmWx/tLgo2yKFwzQE58H/3h7guuuHIAgmO53jvgBuFnXRT4YoXpZCH6dLWumJWWq8F44AR+BYRmAiCQIlmVued3PffkEp6XOT3WVxIm1zlWNZ3yaffZ18v3bG3kBC6+mDtNpxIkrscw9JqkT7TkdqGysYSAfB4fIgkEa81nkaKx2QPYxS51mzxa7YG0gdQamA0N5OvPjZX7DIhHhaQTqj96Vcdua78Yknvox0NIlHPvrfh5RlNlM12xBLq0ikVZT4HCzEkWo62Cy9EYOCgIt+djuK5lVN2DKbEIKQHQ3lIyDwHaKPnZzp4VEEwUghJiIk5FlnMLMCOaKEMwdH9DQllQ/FqNJ1pEkgc8aRCBEEyllA/ZEmIZv+k4jO8uAKyGs2Qa+qwqa6ZiRsQ5crJVUZmRWIIoSUA0gb/emmj2Rs/FqOAEeAI8ARANMakD8bbddkyh4pmyEdJl2UoZfU8GrwkPT+o+FJ3/1+SzVL5EemFDJNDE7nP1ofQ71PuQ2e++QDiLYEEE8pSGY0KGp/Wv/L776ZEYRXfvDHQy6nHAgUItkVTTMtQ4nfwfabeFqFg/wQJJH5HFzy0GeQP9PMwTMRMqEEYSIGNFX6cGluLIwuBbrCLNRkf0E7WgqmfrnSqYIfHwdHgCPAEeAIDETgvZ88h50vrGUZEMMJhYUkZhMmzb1gEaiOw663Do20oBBHSqlM4ZFkbij2OyD1plBOKFpvrQYRF93/KRQ2VE4Y7JwgDAPlnMQ85GcKge4IGYwQsyWwuXoXDGH0Qk4T9nR4RxwBjgBHgCMwbRDo2LgPr37111BVDZGkwmoqZLUI2ZLPmWSvKZ4cDpjlWkChxwZNMxBMKOylLEGgkElyeCQzAxGNE7/0Ecy5fFDhpyNAjxOEIcCTDBnLIydDhAj0RKj0GDN7bK3ag4gjdgRw80s5AhwBjgBH4HhFgMwMf/vG42hf18wcDiktcm5dhlxcqPojkQGq2EjmBSIU8bTGajmUUNGnjMbyINCRldpRwiSL245Ft56FhqtPPqzUyoOfCycIQ6xUl+bCwpgZwohAFMiYMa9BZwTbK6mwExeOAEeAI8AR4AiMH4H9b2/Dm999CsQQKBtiZzTFyMJgocqNVLGR3iK/A0rPTOYESrlMlRoDcYX5H1AJaXJYZDkSBAErvnIZZl2ybPwDG+IKThCGAKUiXYXqVF0vQYgBmkYZMqCLOjZW70DS2h+/OiFPgXfCEeAIcAQ4AscFAmpKwevffAId60mLYKAzkmKmhgFiGCj1OyGKAiMR3dE00yAkMho8vQWfyKRAzotUk0E1TILQcM0pWHL7uUeUXjl3HJwgDLEkF0WXw6mbsbMI9poUNJ35IsRtSWycseO4WMh8khwBjgBHgCMw8Qh0bT2AV/71VzBUHT3RVF+4Y/+dDJTluZjpIJVR0R1JI8R8FkjxYDDi4GW1Gcz0y+Sw6Mpz4crHvwSr20w0OBHCCcIgFF1pJ+Ynl/TFwapdnZDtblPPk1SYL8KWyt2IOnko40QsQN4HR4AjwBE43hAwdAMU0bDjxbVIpDOIJPurNhIWZFogDQIJ5T3oiaUQjNP+059vx2mRUOi1MZMD+R/UnDEPZ37nhgnxPcg+D04QclamqIuYf2AmXKoLKPSa73ywAXDYgbpaIJRgL6miinW126FK48/Hfbx9EI7WfC09Kioe64FvdQK6VUBsgQOtN+YhXWlmwMwVz4YEil6MwLFPQbpURtdFXoRXuI/WUPl9OAIcAY4A2ppacN+V98BjkyGLQl9WRYJGFihSwSQIFKVAZgiKYMj6KpAWwW2TUeS1MzOD3SbjjDtvwIwzGicUWU4QcuAsiuRhZnu1+YrDCnidwIaNQDwBnHSiGdHQayrq9gSxq/QAD3uc0OU4/s6EjIGZ329D/t+jEDMD7XiGCEQWObH7zjKkyyxwb06yto4DyoAyquxDWGbBnq+VIHQqJwrjfwr8Co4AR2C8CKRiSfzw9O8gGUsO8CugfnI1COSD0BFJIhjPQM3xVfDYJZR4HawWg9Ntx+UPfw6eCsrqO3HCCUIWSwOYf2AWPCmnqaLxuwCrBdr2rZCaDwLnnwME48xZMSs7S/eh2xuauKfBexofAjow7zP74N2YHPE6pUjGgU8Vov4/2w8hBgMuFIBd3yxF16X+8Y2Dt+YIcAQ4AuNEgEIeH7j+J9i/6QDbcmijd1klVqGRvqiyPgjZ8tCURZFCHklIk+B3yijzO6EbBrz5blz71L9Btpv1iiZKOEHoRdKdcmL+/pn9tSRkCfA4EIsdhPPtTRCXLQfITGSzA53tQGExMmoMm+e0IcWjGiZqPY6rn/oftKH4+fC4rhmtsSEL2PhIDRIzbaM15e9zBDgCHIHDRoA2/j/c8QRW/XFVXx+yJMDfm/+g1O+AKIrsPSoP3RFOIpY2zdp0LZV/rsh3MtJQUJaHa5/62oT6H9B9OEHofTQzuspQHiwe+LA1DYYApHevh70zBlRUATNqgQ1rgcaFQCqJUKmIpvK9LASSy9FDQEzqOOGinRDTE5/ZsutiH3Z9p+zoTYbfiSPAETjuEKBN/tX7X8Zf73+pb+6kRchzmgmSyL+AnA9JKDVzeyjJch9QeCNdS8mSiEQkFBWldSW48rEvTTiGnCD0Qtp4oA6+5MD65FAUGF0diOeLcK3bBcHlARYtBWJRwEWRDQYUi4rm4lYEPBN7kp3wJz3NOix8MYRZ32+flFll8iS8/1J/2ddJuQnvlCPAETiuEaBN/vn/+jPefPj1QwmCIMDvtMBps7D3yIxAdRi6Imlkj6LlPjsKvHYW5VDZWIlL//dzLMviRAonCL1oLtw3G670EPGjug5j83oI0ajZ0uEEJAlIpwFdw97lNrQ1HuopP5EPifd1KAI1/92Bst8FJw2a91bOgWGZ4E/bpI2Wd8wR4AgcawhQqOPj//prbHxxfd/QyTmRTAekJbDKIivxnC3mFIqn0RFOIUUFngCU+e3s/aSioWZ5HS762acmHAJOEEYiCKxYhgBs2wwE+uuO5z4FXQJ2nu5EoJaThAlfnSN0OOO+TpQ/EZi0W777zhzTlZgLR4AjwBGYBAQ0VcN91/4YLVsO9vVO3zgFbpMgkJT47JB6/RAoX0JHJMVyJtBXU6HbhiKvDapmYNY5C3DW926c8FFygtALacPBOvgTg0wM6RQgyUDrQeDAvqHB93qh+lw4MFtHezVPwTzhK3SYDr3rEpj32f2TcrtUhQXr/lg/KX3zTjkCHIHxI2BVZdSuVrBvgYCUZ3oQ93QijR+cfieSkf4oLBZA57RAlkznRCILNosZmUB+COSoGIhnWN4EKuBkahiARTeehuWfvWj8wI5yBScIvQCVB4oxo3sYx7RIGNjUrwYagCmZHBYugR4NYtP8LiRcmQl/SLzDQxEQVIM5KUqxiXcObbk5H/u/MMhhlT8EjgBH4ENDoCRcgLrXurHrLC+6CnrNvR/aaCbmxj37u3D3BT+ETvmTc4RSKFP5ZhI3S6dsaqcpH0JbmPIhKJBFEQUeK7x2CywWCWfdeT1qzpo/MQPL6YUThF4wJF3Cor2zYVOHMBXoGrBxHRAfJr1yw3wgvwAJpRMbG9tACXq4TD4CJc8EUXtu5GfmAAAgAElEQVRvB4QJ5AjkoLjht7XI5E9sPPHkozG17iAaAnRh4iNMptYs+WiOBgKCIWB+9zy4V25BZHkttlTvORq3nfR7fPCX9/HkVx9nEQm5YpdFeBymc2KuHwJVdGwPJxCIKbDIIoo9Nlagyemy4erf/iucBYM04BMwA04QckDMj3kxq20GxKF2+I52YFfT0JDnFQCNJnv7oHYb0hZlAh4N72IsCNT/RyuKXopMCEkgp8Qt91chuthMccplfAjQF7k/7kFZqAjWjAXbK/YgZeWfhfGhyFsPRsChObGoZzGE1e9DnzUHa2duPebT3Ouqjkc+/zC2vr75kAdOhZfyXBbmh0DmAwpnpHwIFMlAJoaeaJqVeS5m/gkCiqoKceXjX4YoT/zJlBOEQY+nMOrDzLYZ/QmTsu8Ty9u8ASBzw2ApLgFmzWWvHihsw8H8Tv4pP4oIVD/YiYrHj9xhkRIkxefaj+LIp9etKntKUNVT2jepmC2BzdW7eDry6fWYj/psytIVqInWmqnuBQGbq3Yh6ji2i+WFO8K4+4L/gJIYikAbzAGREQQAhR4by4fACEIoiZ5YGi4bZVF0sNdqltfjwp9+0nSon2DhBGEIQJ0pO+a21cKWGWRuUFVg726gq9PMdWl3AvX1gNff93CoHPSm6p38S3GCF+qI3elAxeM9qP6frsO6KxV32kTZE+t49sTDApDSxGoSljY3QKawnhzZWL0DcfvIqbAP9578uuMDgXmxRfAqXqA7wiZMdXB2lk2Og/LRQnTDS+vw+L/8etjb+RwyrL1JksgRkXwSyMTQFkowgkBlnsvznCyCYcEVJ+CUf7tyUobOCcIwsFJlx8Kon2VXdCiDNo5MBtB1wGo9hLUZgoE19VugibzS46Ss2OE6NYCypwOo+en4tDeaW8TW+6oQa5y4GupHdd5T5Gb5MR9mtx6qeWvJ68T+orYpMko+jGMNAZtux+LoCWCJartMgqALOtbXNB2zplxVUfHIZ3+J7W9tG/Zx2C0iPHbTD4HyIpCvgarpfdkU6TUKgaTiTad+4RLMu+HUSXm0nCCMAisRBQp/LIj6mX118AlpqMvX1m2FIvNohklZsSN1agAlzwZRd0/HyEWZevtQvRKa/rMCkaXc52Csz8qiyiCPck/SZX4Wev2rLJo8pINv0prChhk7uEZtrADzdgMQKEmXoy41yyySRxqEXoe+fYWtaM0/PI3hhw1xy7aDeOC6nyKTHrxHGCw6gcwGFMboc1qZAyOFM1JGxXRG7S37nGF+CRQOSb4JF/34EyhfNjlh2ZwgjGO1yJrESEJe3AtX2gmraoGkH+oYsq5mOy/gNA5cJ7pp6e8DmHF/F0RleC/6TL6Epv+qRHQ+1xyMFX8iB40H6+FUxuen8X79FmQkqnTGhSMwPgTmxOchXy00iQERBLKzazpUScX6GU3IyMfYujKAF378HN74xWuHAGGj6AW7zKZK31zkgEjidchw262IpRRmXoinNVT4HSxXgsfrwBW/+gLcZXnjA3aMrTlBGCNQQzUjHwVfwo28mBcOxQ6rZhKG9TXbkeQVHo8A2SO/tOilMOp+1D4kSVA9IrY+WI347PFtdEc+qmO7h5nt1SiKjP+LiHxyYvbEsT15PvqjjgC56C2JnggyMzDpCgOUE4Ac+wwDLfkd2F84OfVYJmuysZ4Y7v3IXaDfucI0BU4rC18cLD4H1WSQEYylEU6aWgcq0kQ+CUVVBbj811+EpTdXwkSPmxOECUSUyIEz5UTCnoDGqztOILKH11Xeyhjm/L+DA0IgqZzz+idrkariqbHHgyo5IS5rbgDlCxmvNJXt5cXMxgsab4/8RB5mKfMhCuamqbW0QSoqBKJJQNWhCTo2zdhxTB3GXr3/JbxyX3/1xuxjphnmua0Qh4hEICdFiySiK5JkPgckxV47c1CsWFCNS37+T32pmSd62XCCMNGI8v6mFAK+VXE0fukAGxORgw+eqYdSzJMgjeshGUBVoASVOSGM47l+b1EL2vK6D7mEnH+5pm08SB4/bcn3a2nzXFhsLsDT6yP097eAxgbA4QYSZlr7iD2GLVW7weIBp7ik4ync+5EfIdhyaJE5yn3gd1kYQSBtApuOIIBeL/SaTvKd4RQzPQgwUORxQDN0zDx7Ac787g2cIEzxZ8+HN4UR8K5PYPYdLaA8B0qJ6RnMpR8BSnDki3vgyNgQckaRtKX63iyM5aOyqxh21QpqdzjS4evBnpL+gjTsu88QsKR5LsLOGJqLW6BzjdvhQDttr6nprEBZqNCcn9dpmhbeehvIzwdmzwKCZh4E2jD3DUNApxo4f73/Jbx6/8uHZE6kcZK7ATkjEkGg6AWnTWIplUlzQCGNZE7ojJgEgbIrum0y80GYf+3JOOELl0zaVLkGYdKg5R1PJQTEtA7dNvGZxqbSHMc7liKlBH61ANYE4A1YAJaMRUWPM4j2vB52up/TXgdf7MiiPCiSYVP1rgGhv56EC/MO1rNon40zdhzzmfHGiz1vPzwCRB6X755nRsnQzul3ARYZ2qr3IIWiwDlnA4F+G74qatg4g8Iep27kWDKaxI8/8iOE2kJ9EydNARECsipkN32WGdFjhySJjBTQP6rmqBFBCCfZ336nlb1HkQ3L/vl8zL/x9ElbTpwgTBq0vGOOwNRFwK15MD+2pD9jKBWMoS9jOqKkFBipNHRNHTJK53BmlZLT2F/Qih5fBHLawIyDeSjWqrGnuAUd/qFLqR/Offg1xz4C5PQ9t7W2fyI2C1UtQqxtG9zv7wHOOgNIaWYumlAQKChCSglg47zWKen7RUTgubuexcpH/94XFkwfNUp+5JBFiL3RCpQ50WYRke8ysyjmCoU+dkdSjCiQ/0Fa1eCwWnDaN65C3QWLJ+2hc4IwadDyjjkCUxeB/EwR5iQaRx5gRjVVuYOKyYxrVnRtLAq0HICSiaCrRoC3TYWnS0NwRR2a5gZ5joRxATr9G88/UA9P0j1woprKNFDC6lUQdQGgAnluD7BtEzB3PltjLXUqDhS1s1P2VJJQWxD3XPIjpGOm6U4SKHTRwsIYBxMBym1AmoGhJKmojGBQpAMRBqtFxrl33zJpORBoDJwgTKWVxMfCEThKCNg1JxbHlh9acyT3/rS590RZ3PlhC6Umbxnof0B9qRZg/dVeZJzc7HPY2E7DCykSjMwLhxTMi0WARAIhsRv+ph6gvAqoqQXiMcBlkgkyMWyt2oOUxXRgPPpCgZnmPxIiKmomg19/7pfY/vet5nAMA36XlfkWZIVaWyTSHkhw2U1HxZEknsrAYZVgc9lx+aP/AleBt6/5RJMjThCO/irid+QIfOgI0Bfw4tgJLMY8KoXh0XyHjmm8BEHTzGJm9KUt0ynIAPbsGlIDse18F0KV3GH0Q18IU2wAlJFz2e7GoYlrJgNj7XsQiLDSJkoaBNpo6e9kHPuvaESntxMZHH2C4BD8KNLqYY3LEBIGDF2D7hLx7obXcc/t34TBOLbBnAtpc89qDsi6QMWYJJFeG/phZMtB02/6SCbSKlx2GdXL5+GGu++EK+ODkDZgCDpSrhSC0kGkDDMt9ZEKJwhHiiC/niNwjCIwO9GIgkwRMoICHTpsxhCJo0IxID10tjrKZhexx2Hb0wrngTAExUxgM5r0zLBg51kuDFVVfbRr+fvTBwFZsMFlFMCq2SHoAlRJQcaIYd7uqqEJAvkcrPqH6XswhOh2G5IXnIe2/DZ0CXtGBUqACI9QBHemAJaU1cytIGtIu5JQjBTsigOCAuiyjoQ9irgYhIGBNXaojzKhAZ6AF0Z7AmJagG9GDbSOKHRFx8rd7+JA8x786hf3wibprApjlhwQIWCVGqWhc4uwT5JuQNd1aBkD/vwSXPWJr2DzP1ZibmUjVIeOZaefB4GiHryF0A4GIbgtUIpFRL0hHJQ2Q8ORlVsfE0FoDq0Z/VM/6uPgDTgCHIGphIBkyCiKe2BXNCTlNKyaA5KhQxcEaKIISdMhKBkIwYFZ32gOoRILEtYk3G+sgrfTtI2ORXSHHS3XnQTNyk0LY8FrurZx6A7Yw3agKwmr0w0jloaQ1KC5dbjUJIv1HyCklXI4gU3rTZ+WoaSkFLDYkJpRi5A/YW6OBiBnRIiGBUJKgW6VockKDEmAU3HDGgD0QALW2fUwVEDsTkF1A4bDAlHRIXs9QDwDLU+EogQQlXvLyhMR1nVYNCs8ATvUAz2wG36I5cUQKj1AMA0h38FCGl/78zO476ffgMNhRUqJm2WcBQFOq8TqLWTFoKgFSrNsAJQbymGxIZFKQc8YuOjcW9Gw7FTMu+AcaN0xCJ1hpHoCsLnzIZS4IRYRhgoErw0GpaLesxdRbxgpa2/IsplYwcwXkf1/70vs/jnvm9HMAnNalq1OlNSPXAhK+OhNHxvjx3+6Lmc+L47A9ESAQqiuOvNUXHHOmXjp3dVob+/Apt3N6ApHIBgGfC4nTqqtw41nnAGrpd8k8P6WzWiIhODSx161NJbJ4Dsbt6D9WMhqMz0f94c+K4ss42PXXIcFEQGerhSsJeWQltZAEGQgrgA+K4RwO5AZJjV3eyuwe+fQ8ygoBGbNBbp6YOyIAKmMmXUxLx84awkgSkBCB5QojFgSwoYdMJxeoGE2hNnFEGiX0wwYXiuQzMA42APBY4ZYIqMDW/cATgFw9Fb3pZ08nYHQFoQejsE4dxnEikIIig6DNGoFLhjRNBKdAUS7O5Aoc6Kt+wB+/uM7oKtxRg5oL9Y1A3pGhyzbce2n/w09B1tR769FXVJDW7wLnbv3QFjQgDOuvoURAP39AzCEDDLBGOQFVZBL8mCkMjD2hSFW+mAEkkDTbggH98LwugBybnQ7AJWYRy8D6U25NOqCyHND+NRHRmwmnH3WOZwgjIokb8ARODYRIJLwscsuxi2XXoKnX34Vf3nlNdS6HFhSUIAqlwseqwUVpaXwzZ5r2n1FEUZnO4SdTWOesKLreGDzVjy//1CHxTF3whse8wjU1NTguxffgMq/bYQhSRBvvAICnX5bIgCF91EFw64QBFd46OyIREhXvwuQv8tgIZ39spMAqxXY2QasOwg9lQau+giEqgKgMwZ47WyPzKxpgrZ9B6TqUkjnLofotMHYFyJvQQg2C/SeOGJr1sNZXQGh2g+RtvLNuyBUFrF8IaZQRxorQ23EU8CJjdASaQiwQPA5IZQQQVCgvL8TVqcLwtxyhLY34+WnH0BGSCCajCAYCyIQCmPp4nOx9JSLMOvc0yGrApDIQChyQo+nob6xFvK5yyBIEox4BkIsBYMICY2g2AMjoUC2OU1yZZGh7+sE3lwDUdQA8tuwOoFLTwc0CXBKwDvrIQQC7HM8quS5gU9fygnCqEDxBhyBaYwAnWROW7oEX7/9Ftg7uyBt3ARQmONg8fqBGTWAmgG2bRkTIpqu41c7duLJXc1jas8bTV8E6mpr8e+X3YSaVzdCuP1KwO+BHlNYUTVSyYPMDOt2QBTDEOoKhyYJ27cCPcOUeq6tB8orTe3BS5tg+L3AKUugR5IQvXlAMd1DRebxFyDYrJAvWsHakIlDFCwQypxABlBeXQN0dkP2uyHYrSzds+Cym7lCcr0JSYtA9wrGYISj7D6GzwclFIECFaJFhBSMwrGoEUJNIfDBdgjRGEB9KirzL0h3BKC6HXBf8xEI+S4Ye4NAoQuCJELb2wVl9TpYXTZoKRVCVQVEjwuGRwKiKcTeXgdZlOBctgBqSwfk+VUQSKsRjACSATS3wKivgu7zQvD7IcgC8PoqCC7r2AgCZbH8zOWcIEzfjySfGUdg7AhUlpTgwW99HZ5du4HdIzh60eljGGexwXd7pGknHtu5e+yD4C2nLQKyLONfP/sFLOrMoHTVdoRIWzC3Ed7TToTmBOS6IuhbWyC99z6EE2qAsv4Qvj5QMhlg3Rp2Oj5EqmuAqhnmy+sOAvu6YEQTMKh2A53A02mI+V7A5WAOgJQUTFc0GDYHhOoqaF0dkBfVQthx0CQETluvUwBlNrIxQnPIyZv5IxhAMs0qTRrpDNkNTNNENAoEQuZnxWaFQCmjY0kYhgijcQ6EUxuZvwLy7aYWQjUgpg2gxAUkVKirt0Ps7GKOiMxUkEzDUFVAls3xUc4EiuJQMuY47aYWBqQhyH4+FRVGPMHui+J8wOs1I0GMjHntcOETmgZD0yB861ZOEKbtJ5JPjCMwDgTIeeq/zzgVC8g5awwRCSN1TQ5apDn43a5maEfY1zimwJtOcQTcbhduuuo6XOKvAV5dA9uyxRBlKxBNQy7Ph0DlnLdvgeB1ACUeYGYhMLgMciIB7NgKxOPmBufzA6Q9IEfG7IbXFgGaOplfAYszZN5/ghkamSW4tJnTpptWes0Wornx0g/53PRmOWSQEkGYUT78hso8DM1cB+w/KQVo7xpIZFQN6AxAn1ML4dwVQJrMAJQVEki9uwmZHbtgW7gAihaB8+SlSD37JhwF+RCMlKnJIK0eber5PpPkkOove18aI403HAU6c7KT0vvhGHTZAuHK8wCFyIoFWLUJQqArx2QyaOFkzTh3fIwThCn+meLD4wgcFQSuravBZxrmjJqsZbTBUCDaQ1u24dm9+zk5GA2s4/B9i8WCT3/0ViwuqIajLQRvSxBOjwdCqRfCwU4IqSTgsJubsU0Gyr3mT06CIXZCziimyz/5HQyWUBLY2DYyutmwAdIAsGQFpvc+IxCDT9a0GbtdJlGg97LtiAzQpk2bP23gZH6j/9PPYGJMY46b5aqpngJKyyidEoQCL5Q3VkEnbUdZFQyXA47zT4AgWSESUbIaMLojEN5eYxKXsmLA5xk4t+xciJREzWJWTOh1IkGCCJ00D4WFEHx2YOtuCKQhGc4Xga7zubiJ4Tj8fPIpcwQOQcAiivjduWcij74Aj0ASqor7N2/DX1tah6xcdwRd80unEQJkbmicPQezqmpQZHXBFYzB1R1BQ2EZCpweVqRoQCpiq8Rs8yhyAx7a2EapLkqaiPdHcYplPgQKDFLfV5UCHjegihDUGBCOm6d/IgPUTtVg0OYuysBpi4FgEoKow9BVCPtax2bTp+dHJCFLJjKamRpaEiFEE9ADERhLFkI6cQGbq7E7yJwkyW/C2NAEoWk7UNCrPSD/Clk2x0bEhLQg5JRJP4OFjZ8IFZk/dNP8QT8jOSpSOyIQ/3LNiKuORzFMow8lnwpHYDgEbpszCzfPqj+iIMTWRAL/tX4TNgYOrXnPkecIjAUBr8WOOk8+Znrz4bc6YJdkOGUrvBYbfFY7/PTj98JR4oOY7wLI5m6RDnVoTKnA6v0j3zKVhtEZgLFgPoQTqDaJANhlMyTwL69DEHRTBU8aglDE9GW4+lLTNyKUZGYQY08bhHdWAT53v9ahTzNBpo1e1f9QWonsCZ82+J4IDFL933YF85cgHwQyP7DIjkAc2LATwv5mwN9bp4JMAKSFoH6J4NjJX0I3tSyjpGse9TkQOUimzLl/++OcIIwKGG/AEZjGCNglCc9ecA5sw2R1G2rqfbHPlAIWwJqubvzXhk0I0kmGC0dgEhCgOgU2UUKh3YWF+aU4q7QOjfmlcPicQGGvZsFhMQkDZQBduRugaD7KgTDUxplIwQhGgQtPgW61QbS4gAIbjJYQhLfeM7396ZROGyaFFrqcMBY3AJrINmrBY4fx+mqIoRCLdOjTNpD/Aan1Z1YBFH1gdQBpykra6+swOBKCFTVLsLwNRp4XGuVpmD8foLTMNfkQFA34098gEDkgEwOZIsi0Ul4MnLEU2NMJgUwy8SAQiQEdPWPXaAz1nEhb0hWEJgmQ7/08JwiTsJZ5lxyBYwaBeq8b/3v6qYdUlxs8AXI2jCoZrO3uxustbdgTjSGiKIxYhBVlrAkVjxlc+ECnPgKVTh++vfgc1HvzIZJDIp18Kf7/pAYgbgBdcQgpMhekAKulN5tgr3mCNn4yMUTiAJEFIhLkw0jRCpQQidTwWaG21CaaYCp9g073bgcEIgbkQEgn+azJojsELF0GLKlnr1MKZMpXgL+8AYESMQxW7edGQsSTMBI0B5VFLFBuA3hcEEhDYZWBYBR6IAwsXgxhSQOEAgeM1iiEGX6WTREvvgUhEQXcOQ6b43mMpJmIJ6G1dCLusML7869xgjAe/HhbjsB0Q+Ciygp8ffGCYadFiY7+vHc//tC8F6G0AlXXORmYbovgGJ6PLIq469xrsYxqFOkisGghMKcUQp4H6E7AcJPKXoGxaiOEtg4ItPmT+jx7kmeBB73mAOIOQ5kDsmYDinwwdJMgkFqfIiyy7VnEQJxt7MbNl0KgTbolAsHvgNEWBlZ/AEGknM6k1simPu4lK9n+6TeZNGijZhEOupmcjEIObVZTk0EaklsuZ86ZRkKFoBsQ3FboLUEI73xgEiIPRTkM4aeRjeYY6nkzEpSE0ROF4S8EFjZCvGEpJwjH8GeDD50jcMQIfHz2TNDPYMnoOp7fdwBP7W5GZ6o3r/sR3413wBGYWAQkScJdX/8WZr29A972EHDNxRBnFMPojsLY3QUdGoS6YhgZBWJbFKJBVZjSACUUIqe+sdjs0wqMQBSYNRs4aTagCRAkAbqSgvKPtdjd04GwkkKRy4NKwQ4LqSIUHcLs2UCRFcamPZC6eyBUlsHoCEAoyANi4f5ojT6yYjpEIhKHYbUDhXnARScBrRGWTRHJEIy9ncCOPSzqATNmwFDSEMv8EKmQwr6DAKVYtttNLQiRmNyQTSId5BxJ9yCS5LBCYGSJ6rDrQFcIRkcQ+tLZEBfPhkBhpiMId1Kc2LXMe+MITDkEZno9+PlpJ4NOYiSUw4B8Cv5v+07sjExM6dgpN2k+oGmDABGEH93xbTj3hVDv8sK6bB4QTsLY0w01kYDszwdq/BDtFhhpFYLPBoNyEDz/JgTKqUCmhyGEPge6YUDVNVa4LJPOwHHVBYDXDSGQYKf0VGsAzT378W+P/QzJdApOhwNnn3wqTp01H6WKiOLOKKTte2GpqgYWzYS4cCaM9igEisoQMkBbD7B5R7/ZgbQH4SiMnjD0hfMgnrwE8FiAfWEIFT7TVLFmM4Rdu8x8BrThkz6PTBFECJwO0zeBCEI2LJRpBtIwQgmWc8GYPwOC08mKZcGqmb4WPWGAkjAF4yyk0lg6G4bHAWlFPScI0+aTwifCEThMBM4pL8PXFy1AWtPw2M5dLIcBfTly4QgcCwhcfdnlOGPuUjgP9qC4IwJxbwcsNbOQMFLwXnoaJLfdLGRElSPz3TC6YzDWb4IRDyJhkZDUFMTVDIJKEt2pBDqSMbQnImhLRtGVSeK8Cy/E4uJaODUZQiQNt9cLscSDSCyKdW078YunfsNSJ2fFZrPhnz5+G+a6S5De1Y66qnp4ZpRBcMsw2uMQKrwwEhkz9TGljqZTP2kRyLQQooJSKeCmi2DQ6V8RIBCJKXACPXHgjTUQ4mGzCNNgIYJQWdpPOLJ+Ea0B6FQr4sTFEMr9ZuQDFdZ2WqB3RSFs3gGBHD1JlRCKwaD00VYZ4pd5quVjYf3zMXIEJh2B6+pqsK67B7siw5TUnfQR8BtwBA4PAdIiXHL+BTipcTE8moTilABtZwuc8+rhmlmNTDgOh2ADihwQRBGRXS3oPLAPTeku/Pal5xDNpJHUMsOSYsrL0Di3AYtmNcBHxZFUHeF0HNsONmP95k3QBhWQomRQX/r0Z1ChOWFNqJh5xgmg3A+IUErmDASXDUZXHNi9D8K+Pf0+A9m8BtE4S7+sx5MQSsvMVNGFToiUQXHPQbPS5FCRGXQ9veftjXigfBHxNIy2AIzaMgiLZsJIKhAUkRV4AlVr334AQlcPBCIgpJVgYY4KDIsM4fpRyj3zao6Ht2D5VRwBjgBHgCNwdBEgFX/D3AYsmbcAp8xdBKMrikRHEMmuMKqqaxEIdsE3txqpdArdYgo/f/ox7D9wYFIGef455+Cy5WdC74zA7/Ih2R5ERXkVJL8DcnUehJ4YxCeeh0jOlGQeyPVDoBwHpPKn5EZUbpqcKIlgUD0H+j0Wv4nsrIg0EOGIJGAk09AEEeLSxdB7OiA21kDf1gzR64ZEmofcMbhswPmLuYlhUlYH75QjwBHgCHAEPhQEKAtjTXU1brzqWpTYfcy0oLMcHQLgtmJPpANPPvtH9FBho0kS0hjcdN11WF7XAK07Bj0Qh6joUNMKBKcd1nIfgqEuJDbuxCxPPoodbthEmaU6J59BFoPA6i3Qvm1GJPQb/cz/seAHluwx+7cBijpKqRkk9QxiGTKdKIiQM6VgoKJmBhx+P3RJQlLQ0ZqOYeWmD3BSfhUubFgKiySze7HbumwQOUGYpNXBu+UIcAQ4AhyBDxUBiyzD7/fD6/XCJluQTKUQioQRiURApcgnW0RRRFVlJZbMX4iq4jK4LDYoioL2YA827dqOHbt3QUmnWdlmSndOBMEq0f8lyHTSFwSIOflNe2kAKNBY0w32m8KOdUOHSj+6+Zv8h9gPen/3EggyfRBxoX41TUdGzTDzCJlQvHYnPHYHLCKRBKCwpBh33f8TrkGY7EXC++cIcAQ4AhyB4xcBdirv/SEUyKExe+qfqqhUVFTg8d88xgnCVH1AfFwcAY4AR4AjwBH4MBAYE0H44q23G5upSAQXjgBHgCPAEeAIcASOCwTGRBD2P/t34/YH7oKqUdwkF44AR4AjwBHgCHAEpjsCYyIIwZdXG5964C4EYmZGNVmSUFNcjnAihq4wL+s63RcJnx9HgCPAEeAIHH8IjIkgpF7fYPzHo/+Dd/btQHVhCb59/SdRU1KOHS378LVH7kdSSR9/yPEZcwQ4AhwBjgBHYBojMCaCYLy11YgGAnh1xyacs3AZ/C4Pg4RCI5o72/CjPz6K5o7WaQwTnxpHgCPAEeAIcASOLwTGRhBWbhsxIfsf330DD774h+MLOT5bjgBHgCPAEeAITGMEJoQgvPLBu7j72d9MY5j41MFvOi4AACAASURBVDgCHAGOAEeAI3B8ITAhBKFz9x5859lH0RTuPr7Q47PlCHAEOAIcAY7ANEVgQggCmg9ix/Zt+Mw7f5qmMPFpcQQ4AhwBjgBH4PhC4PAJAiVqztaK39uK1p27cPNbTx1f6PHZcgQ4AhwBjgBHYJoiMDaC8NZWg1VusMtAntusF01/hxNATxRIpLDpzbfwtdUv4o5rbkVPNIx8jw+RRBz3Pf80jJz6U9MURz4tjgBHgCPAEeAITCsExkYQ9rQbsMiAKACi2A+AkgHaw0A6g3g8jkAqjoqCYlYliiSjqvjpc0/i5XXvTSvQ+GQ4AhwBjgBHgCMw3REYG0FoCw4d5kgmhqQCtA6fTbGpZR8+94t7xlW1yut0gUp09kTC0x1/Pj+OAEeAI8AR4AhMSQSOjCBQLe22IJDMDD05TcOuTZvxL3/6NVLaMG1yrqQUzqfOW4xPXXQlJEnCtx/5OTpCAVYDIqUoUxJAPiiOAEeAI8AR4AhMRwTGThA0HYgmTTODyw6QFSGSBLqjQ+NC2oXWThh7W/HLpjV4qnnjiL4IkijhxrMuwG0XXgHRYmF96pkMS+PcHujGnY/+D9oCPIxyOi5CPieOAEeAI8ARmHoIjI0gbNhrMFOC0lvNUer1Q9CHSbBI5IB+mvYBgRCCSgq3vvU04urwWoBLTjwNX776Y5CJHBQVmU6Q3d2AqjLzxN1PPYK/rn136iHIR8QR4AhwBDgCHIFpiMDYCMIoqZYZLllSoOpAMg2kFBjJFLBzL/YVO/G1136PQGhoXwW71YYHv/gN1JZWmE6QhYX9BEHTWAzEyk0f4OfPPQ1V0+CwWlllyWSaF4mahmuST4kjwBHgCHAEpgACE0cQyB8hoQDhGIxUBphRCn1fJ5DSsKtAQJdNxaN/ehq79+w5ZNpLZ87Fj27/F+aYyESSTIKg9mosyNyg64ilkkybQL4KrT1d+NYjD6JrGNIxBbDlQ+AIcAQ4AhwBjsAxi8CREQTSGlhlwGmFQT4KXRHobSEYGRXSOUuACIVBxhB2qZDynQi0tOI3zz+Dv218fwBgX7nmZly64oxxgUhE4WfPPIHn3ntzXNfxxhwBjgBHgCPAEeAIjI7A4RMEIgc+J1DgoeM9jM4ItLYgRDgheBwQanxAUgPSGlDoMH/vaUF7uBv/9PC9TBtA4nY48Msv34mS/ILRR5ttIYowrFb87tXn8fBzlIhpeCHnR6aM0LSx989bcgQ4AhwBjgBH4DhH4MgIgt8FeByAkoHeEoTSFoAoOGAtyAMqPTC64kCJG4IoQA+noW/YDqnYg19/8CZ+/4+/MVPBly+7EecsOxFC1qww0gMhEwRt9F4vDIcD4bZ2fPkH38D+SOCQqyRRNEMmL74K8VQSX3zwbkYSSvx+2CwW7O/qOs4fPZ8+R4AjwBHgCHAEhkfg8AlCbp/RBLSkgnQ4BbmhCtaKQraRG5u7ALcFgibASGagK0kIQhIo8CIUi8Iuy3DYHIxAgCIjLL2+B0ON1+UEPF5AU8FUBhYLjK4Anv/Vw/jpppWHXHHGgqW48+Z/giiKUDIZXPndryClpLGisRHfvv56fPPRR7G+uZmvDY4AR4AjMOUQoMNTWV4e6kpLsaqpCanM6Hlkptwk+ICOeQQmhiDEUtA0DZohwLKwDgJFOaY0CLE0kGcHUjq0liD0ZAJSsQOCywa9uQuiy8VyKwjUhkgCEQRZGhpUhwPw+UzHReb7YGV5Ft596ml8c+0rA64RBAE//MTnsaJxIXudHBzX7NjCUj9Tdsb59WUo83jxxV/8As2trcf8Q5zuE6CUGyOZkab7/Pn8ji8EfE4n7vvsZ1FZUAD6Lntz0yZ874knji8Q+GynBAITQxDIxCCKUINxyEX50BJp6EkNNo8Hxsw8CGkdSnMbhHQK8sxS6F0RGBEDUn0hi1gwmlsgOmWzCFRurYfBEGVNDNTGZgOSKYR7urG1/SB+/txTaOkxzQYehwu//NdvoTjvUL+GWDKBe555FN/4p1uZyeHOBx7ChqZdU+Jh8EEMjQBpgcg0lFQUhGIxDhNHYNoiQITgoS98AbPKy/vmSFlkb//Zz9AWONSUOm2B4BObEghMDEGgCIZIHEYgBr07gkwsCaOqArLHi4wlA1t9GYyuEESHBUKpH9qudghlRRDSBjMvGLtbIJa7AauZQXFMQj4LeXmmT0IwiJWb1uG7jz3EsjXOqqjGfZ/7OmykZRgkrT2deOL1l3H1+Wejrr6caRXu+dXj+NuqNeOqFzGmMfJGE4oAObRWFRZCUVXsbmub0L55ZxyBqYCAx+HA03fcwfykcuWF1avx42efnQpD7BtDlSRirmDApmvQdQ3dgoTtkhWRnPD0KTVgPphxIzAxBIFU/lTZMZyAEYrDiCahQoBOqmFyLyjLh1zqh1DmB+xWGPu7oLWGIegWiJVeoLULYnUh8yuAx4yKQCQy8mRIg0AEgdp2dWHVtk3491/dzzb5y1aciS9d/dG+qpKDO6I2lCpa8OqAhawWGu56+Nf4++q14waQX3B0EKAcGSfPnYsbzjiD2WVfW78ev33jDbQHhy8UdnRGxu9yPCAgCwJWlJYy66YmAIbXgXhXCLooQNN06LoBw2GBEktBoQ1TEpFRMlB1HQlVhUYXDhJax7MqKuB3uUBO1fS9RMTg5rPPZr5TuULag1vuvRf6EP0cbfwdgoDLjDQWySJ8jbPhnV2PeDQILZmC0tKFdc2teNMQsZ++/Lkc0whMDEEgCGjhZlQglgQSaeaUyPwF6KSf7wFKfBAoZ0JvpkWjKwwjGGd1HYSyfOaXAHJE9PvNJEkUZTAaE3U6TYKQSqF58xbc9czjOJCM4oe3fR7LZjeO/mBo/doVQDKgZBT85JHf4t1t2xBNmiGYIwmpAqmglKHr7Df9neYFpUaDbdzv261WLKmrwycvuIARA8I5K6R6fXrlSvxl1Sr0RIepCTLuO47vAp8gQNA1ZhpLQkB6CnyBj28GvPVYEKBV99VFS3BmfQ0Eu8UM8aa1SJVs7Vb2nYcV9cCq3UBGAzx2oK4E2LAPb7a24N4N6/s0lLT5f/zcc3HjmWfCQt+PYxBa61d8//vITIFw7S96HChPxeA/60S27jtf/DuKa2eip+MACs5aAUdNBcKvv4+/7j6AV3QR/enuxjBR3mRKITBxBCFLEqg+Ay1i+pDQlyVFJ5DpgJwQc77c+1Iz02v0I5NfgbW/DkMiAdDPWL130woCu/ZiGxJY0bAAlP9gTKKFAaN/CRM5+NUrr+CltWuZKtvv8aKooAA79w6MeLjm4ktx1oqT0RUIoKK0FD2BIP79nrvGdMtjsZFEhEgQ+pwF6XDATk29G+JEOxFaZRmLamvx9euvR4HbPSJk9Mwe/Mtf8NqG9WxMky20WVTAwKdtAiy6Bn/VDPQcaAYkGVutbjwfiSIGkTtWTvaD+BD6/+Epp2JRbSVA66zUZxIE+v6KpgA65MwsAba2mHVrGiuB/V1ALI3vvb8aazo72YhpXf/k058eQHZHmwppDoggxFOp0ZpO6vukSfm+rELTVZR/9HK0Pv5nFM2oR/uubSium4POPU3Ir6yB/ZR50CMJ7H9zNX6qy0gehc/lpE78OO18YgnCkYJIEQzlpabWIUs4QiGmIThiYWaFIVReahgYxHFpiwkGevDeX1/BosuvAfIK8bk7v4For4Ocx+XGYz+5Hz6vt29Ye/bvwxfv/Hck0xMw1iOe7MR3kG+z4cEzzoSFTDsOC3BmA/QX1zHyR34fRAT1hgpEVm5FRElDmlOO4N4ORANRvLJ/H7aNMSU2aQhOmTsXX7z8chT5/axo6FiEiMqTK9/Cwy+9PJbmR9TmTFnA2ckwLHk+zLrjswi8+wEEzYCtsgSehllo+o/70BqM4f8EO5Jco3BEWE+1i4kk33vqaZhVWmQegk6aCbyzwxwmbYILqoD2MBBKMA2ocNlSGC+sR088jk++8TosFgt+/eUvo4TMo+MQWt93PPooVjc1jeOqiW/aYJVxQyIIb10NHA11SLy3GdHuDnYj+uwyem4YcPrzIZT4UXTuKdj10JN40OJGkJOEiX8gk9zj1CIINFmfB3C7TH8EErIxj6UoE30R08aVylFoOawAqQOJeBA5IGfKUAzQek+ZZJ4IdwKegQ5BOm1mLQcgFBRC2LcXKYsFD23airL6eagrq0TaKuKUU08ZYCekD3B3MIBv/OcP0Xxg3yQ/tg+n+3n5+bj73LNNlWokAayYBby3E3DYgFgKmFMG7O4wvyjpeZxQB7y3C+2JBD7199fHNOi7Pv5xnDB7NrPJjlfSuob/feNvePa1N8Z76Zjbl4oCPqcnAUlA3Rc+jj0/+zVk2QJd09iPYJHgXzQPZZedhw/uegDPaDK2kzMOl2mDgM9qxU/+P3vnAWZHWbb/38zpdXvf7G56ISShJKE3EfkUCwr8UREVFEHFTxA/bHwWRFFR/Cg2pCkoohQFUUCKQIBQEkJCEjZ9k+3t9H7O/K9nZpdskk327GZPshvnva69ts288773zJn3fp9yP+95N1WaarxXzlwA/1pj5OKKpfTIqfDSBuMzIO8fsSqsa+PhjRt5MRrhlssuGxMW9zzzDHc88cQe54rLQlK5D0SzKwrfzEUpqqrFc8oRdNz/mMGNBqru2t0eUrEoimrB5nTinFpH0WGz2fjAY/ze5mOHvIPNNmkQmHgEwaCi4HTqL2EyeQqECDko9RtxEPIl8Q6DxGDwdsgHti+CXrpamsQ4NDdDst0gJA1TQeIaRIxp9SqYvxCa14k5AU32smXVKDMWwJRqwx0y0IQcyFc6k+amO37LP/6d32I4aZ6SIQM9obqGr51wrOE6kq8pZfDWDoMUyMvw1HnwxGrj9wofVPphzQ4e2bqFX699a8Qpv3fxYq768IdHPG64AyQgrNcOH7/6moK9MJe4nLxfdlANDSRySeJbd2Cx2cmmU7iLSoiHg9idLjS3g6kX/T+23vMQ/wgkeC5tvhjHdFMn6ElTvF5+euJJuMWVabOgLJ6G9vJG4zNR7AYJyF7VYoxerArdIVJtfQTr6miYUq9bSfNSjx0y/xUbN/I/d9yxS6CiEOnfXH45DyxbxuMrVpA9AEThS06V0nBAH5m3rJJIr+E6cXh8JKNh3MVlxAK974y84vTjSfb2E2rp4VfRJB2DG7QJem/NYe1EYGIShJ1Lr6GNMJxrYOhdFEuB3wW2gWqQe7vDQgx6JTtiwHAtH6ZVyyHSBRJoJubzWXPBXwTRKGxqBi0HQ3PvrTZYtBhmztUDdJLJJL/+4+9Zu6GZWDxOW2dHwRanifLgni1Bg8cuRgnHoa5UDzRlfatByrwuKPPApi4pgAHzxQ/bSzoU4zNPP0XvCO4iUZD7/oUXsmTWrFFPtysYRKnwc/E13yci8SsFaEeqGh9MR3FXVaIUeaArhGJRifR0o2k5yqZM1eMRSmobiEWD1Jz/Ptoe/CfPB5P8Q8szLqYA4za7HD8EKitKOOGYBcwsKeHEikrDciCS8xJH1R4wAqdnVMOa7UZQttsO0yth5Taj4q18LgabqmKfOQNrZcWIA0ym05x97bW7qCpWFBXxx6uv1q0Vn7/1VpoPgPBbmaryKS1BjddLpK8Hb1mF/l3G4CkuIxENYXd5iIcMEiE/1130EXr+/ixbt7dzm8VNwnS9jXi/J8IBhSMIfh84HdDbZ5j2820Wq2GylsU+GAbbgBlvb+fLh7JqIPNhpGvIQynBRMGoQTrkg7xmOfQPyamX+AexJJSUwrZN0LuTCe/Sfe0UOPpYghr85OabqC4qpcjr0xUl+yIh1rVsZnN7q/6hEf99OJMhNQEikEeCKJ//C7360sKFnN7UhCIvOwnG6g3ri6WQJuXYmWgrtkA0aeyoTpit+2lbAyG+8Py/9dSvfbWmqir+75JL8Ik1Z6Qm919R9Xu5tq2V2YfN5uJrvkdLh+EXHe9WYbPxdb+LTDJOxqphz1n1HZTFatM1PTKpFEWVtQS723VLgjzHUz59Dttuu49XbB4ekQyf8R6U2d8BR0BVFD4zdx4fmDPbcG2KS2zQxSbPfFO5EYsgz6fbAbUlKCIQJy64vugu47UsnYNSX2EQDQmVGviuH6T/bDwxiqawfP16Xlq7jmg8QSKZQj4rnz3jPXQHg/zwT/frKdtJSTlHI5k0rK+pdEa3cKZS8j038F0yt4y/j6W5VYX3kebIoiKSXcb7c6g1QX6XOIRYoA+by002m2HKRz9Ay+8fYouvmLtieVqGxzI485xxQ6AwBEEW2bqBYMP+AARG0DSQ6eimuSLwDYlYD4Ygvo+doKxUFUX7ruEwFCqdIMQhNJDGmEjC+lUQ3DE2QEXZ8fAlaJ5y0KtGGpYJ+dB1B/q54hc/4tgSP5+aNYOPPvUs0aE7h7FdcUKcZbVacLucfH/JUqZJoKa8Y46eCqu3Gz8n0nBkE7y62Xi5ycvS54bVLWwMBgkkk0TSaSKZNNF0mj9v2khiN/J0yuGH863zz98jH3wPAMSNVOp9x8ok2H/xup+wbnPh6my8S9U4KWUoOsr1VD3NVfzAWRTxB2cy+MqrCIvpVXLbayqp/ciZbP3FPTxi9/F6Vg/rNNskRuDUujq+csSRRsyBWAlOnQsrtulaMJLNoCydgfbMW0a1W8lomFqpP/+K24Oi5dAG43Q0TbcgWEqKR0ZDiHU0TG9LC9/55+NMdbu54qhFJBYu5Mt33kVO1fSU6yK/B5vV+G6xWigu8iGfWa/HhcNuw+V24nY5cLuduJwOotE46XSGaCyhC8fFogPfRdcgldGJRiKZJJFI6V+Szh1PpPT/pUMRPtHbiTWV1D8LBlE23oWZVML4XA58RlSrDZe/mFQ8xm9SsNkMWhz5nh/kIwpDEOShqCgz/PSdPZCPPkBlObhdO90JAwqJ+0xzHCQIYtrOt8mHTKKPRYOhK4jW2obStybfs4c/zuGGeYvBb0g7ywdl2SvP0dS7nTqPm983b+Su5kNHzrmoyMN7330sR5RXMG9KjbF7ctpQqvyGCVXInrh95Lv8PuDR0SSy+/n1hmVhSLs13klfKEosniASjesvKnkRHT19Jt8499zhSYLfbbyc5YUsVUWHPANfu/FmXlm9dv/u6Qhnv8tp58RIL6qi4imrINzdoRMF+RIrgjR/RTWh7g7KGqaRLnVQM30ebz/wAL+weeli9EGYBZ2Q2XneCNR7vfzqpFOM56/CbxAAib/pDhvugyOajLgc+bu8C0+ZC+vbsGSsOMTiMJYmrrk3V0LaeLYGswXEFveFF16mOSjZWIVv+kd54PNcqihcoabJJhPUzV3IjrdW7jKAwdic3Ucl78cVNjePKKNQzi381MwrDINAYQjC4IUG2OOIyMsHraQIJN9ddA9E9EYCCL0OcDuNB1LYZk/I+D60yf8kTkHMePJdFqV8mpjf3mpBa+2F0DoUBgIX8zl3uGNkrjZZFGUMFnLpJGoywYudXfzvaysnhALaWKc23Hl+u507T32XviPR78msasOkKrgmM3DMDHhlk0EU5OW5qBGeXWdoZAy5hfLjp156Tn+RWiyqvvPQv2N8F1PuF8/+gJ47rlkH3kzidvI4dJVO2Z3kyOk7d1Sj461tbXrNBtkxSR+9fUHdkNHXb1iyAoGwHswVCET07/2BsC54FQhGdBdRKBLXK4DKzmrQTDssBgqc5HVzRLAbSy6H1WYnk9pJfoa+IGV85ScfQ+9zy3HXN3FNe4+ZAjmeD+QB6kueRyEHteJCHdR5edd8eOJN43NQW2IEKa5rM/4vn4PWfhRUXA3TdUtj3k3egfJcS6D2ileNz85u7d/tHXz39Tfy7nK8DvRpOS5NR6iva9AtZZlkgsqps+jaugGXr+id+AOxrLl8flLxuF6bJ9TTxdpojAdKd9aaGK8xmf2MPwKFJQjDjXdA5tgwPQ0cIARBdoDyYZD/D/rFZHERE/Kg8JLs/HdvA4uEziIk/a7Ma8QWyIdVXB3y/92DHPXaETHY2onW2o9W60Xd/CqMs4ZBKufic889zbbIgWH34/94DN+j02LhN6ecRqnXDV6ncR8lCEsEYiQQVMiACMhITILcV/m9J0zg7R1c/eIyfQtiUxWsqopVUVk/gkaCRGo3VlZy/Lx5nDR/Pg21Ndgq926S/dnd9/Lov194Z/A2mxVVVbDbbToBscvviorVZtHTKcX8KqZZMcsKoRCzrARLSvqYnCsTdDrseozBYH0P+V1Sy5YE4qSefw6310cs2I/V7iCTTukuBslsyA4IfaUTMZ2EDO78/mHzsJxRLBYH6uaa19knAtcsXsLS+lojVVpP5Z0OEm8zKAy3RH7falgSRE2xqkgnCI65c7F49i74JQJIvd1d1CfjqBIULURTJwSiVa8OKxjXFovx+edfIpSvmNw43tv3dW2nMRamorZWJwTZTJZ0Qly3mvEZSCVxuL0kYxE9JbKvtYVgXy/brQ4erWrAjEAYx5tRwK4OPEGQoB154AetC4MCRiNlKgwFQXakYi2QxUf6khx8+ZImEcNi2pMPsN1iqJsNFoESYpBIGT5yOSYcQ2vvJ+d0orkU1OZXULMjyyyPeD+cbmicS9pVwhvt2wjF44RjUda1bGHZW28QG2ciMuJ4xvEAUVK7+oijOLah3ngJyr04vMF4SQq+QvYWNsLKrQZBqy3WSUQqEOHSex6ka18xJXmMUxb46fX1XPD+Mzn+yEXD6iXc+sc/88CThU01laX9QjXLtFxaJwLyUnR6/UT6jIqig02sCoOkQQiCp7SczS1budtbRliCK802aRA4d/p0Lpw9d6d4lyz+Yi14u914n82shmhCJ8P6BuW0w+DJ1djmzYK6Wqyx1B7CX1LK+ak33mCGCh+pq8UzUibWAFqpXI7vvr6Slzp3fd4OBJglWo7ztqzVM7yEWBeXV1JaU0e0vw9PSRnRQK8eaxDt7yWZiJPJ5oj099Ll8vJYdSMJ87k/ELdpXK5ReIKgVzfJGQu5Y8BKsD9Dl3RGSSkaJBTSf1fQYPB7a7JoSdvdPSHRvj0hMlmNdCRJNhDGaQ1hiXeiaKPkuLp2gweqGqB2muFu2K3JjvPZVa/xw/vuJCtplZOwndXUxKXz5hv3U7bDc2qMoM/WgaJJJ8+FZc0GeZDo7sMb0Nbu4M5XV/Dg5s3jNmO5o8cuWsCnPnQW0+rrdolTuPOhv/H7R/4xbtcarqPjw70ck4jgLyvH6fbq+gcSfyBiSVXT5+iSs/KyjIUCutUil8mSiMfoCwS4r3YaQcnWMdukQsBjs+FUxeoksuMqxSU+rPE0NlXFabNy3sfOZo6vlJdXrsJT5KWzo4utm7YRriiluqqCWSUVHDNr1i4Sy/c+9RS+zjbOapiy1+Jyu4MkH7t7mjdy50GKa5oXDXJix65icPLsO11uLFarrgcS7u0mEYu+k/Ld6/LyaHUTiTEIoE2Wh0Seg8F1STK1xpohMpHmWziCMFC8SesJoSkWFLcDpWIg2nw01oLd0RKrgETEywoxKIQk6ohSHGq0TTQOoilykRi5VFYvHiUBybKQ27MBrJYoiqjmiQ9Qjn3H/TFQP0L8iaKL4C2G6gYoqdrnCKKJOLf/82EeXlY4pb/RQjCa4+eXlnL9SScZQlSy0xHiNbfOsBZIK/EYX1u6DayOmwWvb+GNzk6+9eKLo7nUqI794Gkn87H3nUm5SDMr8PDT/+ame+4bVR+jObg4m+H/bTWCIP0lpXh8fopr6gl2tOpWBCEL8pIUl4O8JMRq0LJuNclslgcb5tA7Gj/0aAZmHntQEZDCYt/5wiUcPmsG3//17SxftQafzUaJw06ly0mF08UHTjiemXPnGe8N0Wprb8O6ecOoxr2ss0uPOxgpXXhUnY7i4MOjQY7bjSDs6/Sgx8eDVU2k9ue9P4rxHehDRX57QVkp3z5yEanGqVBewe+feopHXnnlQA9l3K9XOIKQzaG196G5i1FmVRmpiB09KPYRdA1GO0U9BmG0Jw05Xq8GmYZoDE2i64Uo5HIoQj4q/Cgza4fEQSSN7AexVqiyQObvQ9ayWV76+z/469rXebO/A5EFnmzt4zNnU+V2YVNUbBaVxjOPRlu+EXtOw2GxYjl9Pjz9ForVijKlRMcysrWLzzzzFJkx5lvni5HdZuPK887hjGOXsnLLFq762U0FY/DT4xFOb9tpDZFYhaLSMhwuQ7ehtE6KN20lEg4SC4f0cWiqhYcb59A1imcm37mbx00cBCSG5bL/dw4fOPUkmv/9ArP7+/UiZ7s02Wk2ToPKKohFYXX+QYYbgiGueGk5sYOYMl2iaJy3cXVeoHf7S3i4YgqjUMLJq9+JcpDEUV0yZybnTJuqF2vjyMVgt/PkypX88P77J8owxzyOwhGEVJrs5k6U4w5DCcoOXEqjdkOdB0V2n3srnjTmqezHiYNuEAkKGvzgyRhF56DIZagDyv96pY7DGB/1ZApeXq3nyDcHe7hi+d9J5g69QqhGTKgyYEaVQC4JB9kfBpf/fS1yu/n9V79KLJnkkz/9KaI8V4h2SqSP2Z3DaWfIvI2gWCGZgy1nsfC3KbPpNN0KhbgdE65PIYzvPnYJV190IbzdDGvXDz9GidEpr4Sujp2B2fuYTW8iycX/fuGgBCXuPqwze9tpDOwj/kFRWVbbxBrnviuxTribN8oBXTZvtk4O5DNuOWqpLtkvG4Jv3H03yw9yYa1RTmXYwwtHEDJZtLY+shYriq8YtaEYbUML6mHTDX2EUCi/IkzjMcv97WNouqZE7QuJEKvDaFs8CT39vPTmSq576TF9ITPb+CIwp76en11yCedffz2hAsktz0xEOK01v3iKhN3BYzVT6bbuGZMyvjM3e5tICEg65GUnHMdHykvzL1m/jwlsi0T472XLJwQ5kGHaNI0Tgt3M6u3YY9TtRaU8V1JFQFK+D+F2dEUZ1y0+inguR2T6LGrrp+izRp6z8wAAIABJREFU/dNzz3Hb448fEpL7hSMIsmuMJ8m19ZGLJFGL3SiNlShTao3CSKJ1MLTGwUR/kCQborrE0FsQH3xz255Bj3nOIZPN0tLZzl1PPsILa3YVF8mzC/OwvSAg1osp5eW0dBcuutuby3LBtnW7WAmGG067t5hnK2oJiTvKbP9RCNS4Xdx+8glISvD+tvWBIN96dQV9E3BDUZVJ0RALU55N02pz0OX00PEfQoavPfoI5pWU8CIq7z3tXXpY3Ia2Nr5y221ERqg5s7/PxIE6vzAEQQiAmOT1r5zxXVISRfTIJVkIPojHjYJIk6U+gRQlKvMb8+noN2oP7Gfb0d3JRTd8h8wkjEfYz6lP+tMb0gnO3LEJZZh7p1ksrCqt4nV/OYeeE2nS37qCT0BiDr539BEcW1W539d6uaubH658k3CB3GX7PcD/0A4cFgs3H7eUV1MZPvy+s3DYbLro2mdvuomtnYWpA3MwoB5/guD1QFkJSJ2DoTm6khZXU2X49Yea7IUoHCCZ0P0CWIIsxXoggYxiQdifiFwJWsvmeGvLRq747Y0HpETrfs3dPHlYBHxonNy1nYpEDKumEbFYkHSuZ8tq91eX00R8EiOwsLSUn0m10/14R0iGwqMtO/jl2vWkD0AJ50kM90EZusdq5cjaGi47/6NUl5TocQe/euwx/vLCC/sVM39QJrOPi44/QSjygRQeET369s4haokq1NcY4jlDmzBjqZh4gALZDuoNiCWgu18Xa9JCEbp7urlt3XKebt+MWb7noN4Z8+ImAuOCgJiZ//fIRZxcWz3m/uKZDD9fs5Ynd7SNuQ/zxMIjIMXkTlu4UL/Qtq4uLv75zw85Sf38CMK/12riCtBUxdC8H4kZS5ln2WXv7j6w2w1XQ3nZznLL4iv+T2HIYlV5efUusQuJTIaP/fuPBKTymdlMBEwEJjUCFU4nd5xyArLDzKeJImJzIEhrNEYoncKmWrhnw6YJGW+Qz3z+U47xuVz87qqrkMwpcS38969/zdqWlkNu+nkRhNwfn9O0yjKUcBqKpZynkIQxYiEfHCkFLSQjEIDJHswxnOVjbwRKjn1tHYSNevBiluqKR/jMsgeIihiT2UwETAQmNQLHVVXy/cVH7nMOwVSKezds4pXuHnoSSV1A60ClAk9qcCfQ4Et9Pu656ipEHEusBxf9/OcF0105mNPOiyBk7npBU4+cbuR39wVRsylDSW+szeU0LAkTMCo37ynJYi+WD6leGE+hSeqjqqJItoMUjRKSMFQOWiwqkRiBN9bxry1r6UvFaY+FeLOvg/7UONR/yHvg5oEmAiYChULgw1Mb+eJhc4ftvjMe14nB020dxKRSo9kmLQJCDO664goqi4v1tMZf/6Ow0u4HC6j8CMIzazVV8nkzObSNHahFKrgcYx+zWB+EIIzkqhj7FQp7ppADKfYUiqEFolDiQ4tnIBhDKXKjOBQo9Q5Uk1RARJJeW6uf05+I8bkXH6InYVgRzGYiYCJw6CAgFoTvHn3ELuqJ0UyGBzdv5eFtLfTLu8BshwQCX/7Qh3jf4sVcdfvtrBrHOjMTCZz8CMIdT2nZrAXLjCqUjh5U0QMQKeKxNr2OumJkNAwWUhprXwf6PBm7WAv6I2i9EbLBKOrJC1HsDtgaRHOoKK6soRaZThkkQSwNr66FaFwPYrlu1dM8056f0M6Bnp55PRMBE4GxIyB7n8/MmcVHZ0zTo9nX9ge4YdUaROjIbIcWAhVFRdx4ySV84Re/ICgp+4dgy4sg5B56WdN6Q4YJfUo5igQhDtfGIp8sloTJRBKkIqRYDroCoLjQKspQpvhRJA2yPwEVLgOZ9n7o6ISKYiNDY1Uz8UCI3mSMn6x+jtX9eyqQHYLPlzklE4H/OASsqsLXFi6gJ5HgtvXNZnzBIfwEHDd3Li+uW3fIzjAvgqA9t3anmP5Qt8BgdUPxr8dTxs5aLAuiFzBYaTEfN4JUaJwsZUClUNPWdrKBGNmMiq1pKkq1F82qgaKi+JxoUlnywSdRwiGoLNUfHqkQeeFz99MeC5spjYfsx8mcmImAiYCJwKGDQH4E4fl1e1bb0cs5Z/WIfC0YgxI/upVBNIT8LhSnCn4PiEDSSCRB3A37E/R4oO6HuArWbYE1m8mFomQWzcV6xlJUq4rWFobOKEqlF4JJtL4AyqrX9fgEwUAyFn60+lmeaN14oEZrXsdEwETARMBEwERgzAiMjSAM+uEDUbS+MNlIAsv7j4GEBi0BkAQHDyhWVa/HMLx1QHbceum7gXiE/YhpGPP0R3mizLvKD2u2oD38HFx2LkpZsR68STAFbok3UNC6Q2jrt5HoaWVzOkSj1YNVUbhp7Ys83jq62u+jHKF5uImAiYCJgImAicC4IDA2giB+eLEcdIXQLE4oLUGZV4Uidob+JJQ79bgCCeJTRG7Z49w15U/89WJZGGwjWRjGZar72clgSeg5dWhvbSZx39OoSxZirSoj1dGHs74RGn26RoTW2kPuD4+y4cTZfO/h36NGEthVC9ujAdMfuZ+3wTzdRMBEwETARODAIDA2giA5vN0hch2y4KlYZ0zXA/U0Sf2zDvjhYylyb25EtWgoNaVDrAiakeI4WWIOhAwJOdDlkaPQHybncxPa1oVqcZDdtIWMz0fJkqPp6O+kfOkslO3dZF5awVN1Vm6+9+5DouzngXkczauYCJgImAiYCEwUBMZGEFJptPY+sh0BfbG0nXoEit2Cti0IfTEUMcOHknq9AWJ9KE1Vu1oMJGtBrAhDhYTEvy9BjllxPUjBcWt+8QuFQlLXOkiDzEGIT0YjF0qQjSaxvn8piKpkW5Q4CTS/TU9ftE6t0C0nm59bQdyj8JsH/sjGTZsKNUKzXxMBEwETARMBE4GCITA2gpBMobX3kwvFUd59JKpeeyEHgQS4raAp5Pri0BNEifTpqZG7WgzEimAz0huFGCRSRuqgZEIkM7oqoVLi0zMC8A64JwrlhhiUSt69f7GSdPYa9ST6xXIQRWuYBhWlKNOKIJUFEUcqlRLWNvA59LzneCTK+jfX8LsH7ufNNasLduPMjk0ETARMBEwETAQKicDYCILuYgiS643AglkoJV5SqzbjKK1Am16slznNdfSTe30dlqZKlMpiYw7ZnEEIZDHWsxY0iCX0WAUJdmReE0pxEdqmHhS3Ey3QiVpVAo4CuSQGgy2DYT0LY5dKk0IMOrohkYauEDmZb1kFFnGnNBWh9ceg3INisZATS4M1Qyib5p4n/saTTz9NOBwu5H0z+zYRMBEwETARMBEoKAL5E4ShRYnk53AcrSekSw2nI3EysRSuY44m3d+NbelMFCEPG7ejNJaDZ0A8aOhUBk34XUFy0Qya04MytRy1zAvdcfDIrtxm7NK7usFhGzldciSo5JoeD9hsRqGo7j6DpEi6psMOpUU7LR1yrBCEUBw6+8n1hckdNRfLoplGIOLKNvA7UaxWtHASggG6Mz28Vpzj2GOPIdAfIBgM8r/f/Q6RAZUtu8XK8TPmMq+6no1dHTzTvJpU1tRkH+m2mf83ETARMBEwETjwCORHEJ54Q9OD9MQXrygoIoQkMQSROJqY3kMxstEEmsVKLhrH6ndjKfWiVBVDmezMh2QsDM5RLAmSJtneTzaWwTKlEaXWB14bWjKLUuyAZI7c9i6UQACltmz4fvaFmQg4yXXKSiGVgnQaKiROQIWOLmht33m2EAKxInjcxt/k9/ZufY50BsjZ7ShnHYeCiibuhf4ESolTd63ktvehtHWgaXGUc09BEZGoTBYtl+Pvv7qT/3v8YeZW1/PFU97LjMpaVEUhnc1w/eMP8EzzmgN/180rmgiYCJgImAiYCIyAQF4EIfe7pzXcLn3nLQu6UloMSgrF59ID+bRoEqJJY+FUNJ1AKOV+o2DR3uqiS0Bid4Bcaz+pcBzbkvlYyv1osqiv7UGZV4kWS5Pb3o2SDqNOrTKsCPk2IQZdfVBcBE1TjFiC7a3QOMUgCK0d0L6b3LEQmZIiw/0hRVX6gkagoqRzJtJoR84ll9XQAjGsRaUoM0r0oMrsui2obzajNFTA1GqDXIj+g8VCoj9Ic1cbsytrcdjs74x+e38PX33gLvrjETLZnKmumO99NY8zETARMBEwETggCORFELLfv0/Tjl+AWl8F20NGloE9jeK0QTBixBaIdSEnBEExyh277MZCu7fgQiEInf1kW/vQ5jVimVGHktPQpJ5BIm2UTe5LoEUSEO1HqfEb/ebbZJHuD4JqhemNEE/Ath0wZ4ZBEDZugcheCmwIqRFrg4x9wNIhxZlygSiZcAytuhrr1CZy2QiWwxpRNrVBW6dhMclTETKn5eiNhOkIBVi+tZm2YB8rWjYTSsTynaF5nImAiYCJgImAiUDBEMiLIOT+/rZGnQ+l2AmBFPjtut4BgRi0tIN/txiDQVKwrxoLQip6guTa+uHwaaglReRiKZR4DqVCMhdUcvE0mWdXYKvwojRW5rf4iqVAdv96ZkUGevoNQlBeomdIkIgbC78QhnwyI94p7RyHYBQtmiAr1gHZ9WsaFo8TpboU5cTDoasfRCthDE36evrtN/nh4w/oKZNmMxEwETARMBEwETiYCORHEB5aqyllHii1owVTKFVeNPG9r9yAkoyhTqvWF/RddA0G6yvsbRHW1RhjaOJm6I+RTmfJBOO4Fy9Cs+ZQ51RBLIP28hqUci9KscfYzUsw4d76FHIQCL1j3tdjH4QkeN0wa4Zx3pr1kEyODnO97kQGomLNSEIyjSaBjdK/EIQZNXDyImjrgVVj0z1IZzL876N/1K0JZjMRMBEwETARMBE42AjkRRAya9s0i8QgBOJob/eiNBQbQkixJIR6UKZXGCmCsmjqAkgYu/aRduiSLtknKY4RsoGoHuioulzktrdBUy22Mh+KTTXSJGNxSCSNjIgi3/B9S8yAWAZ2bxI0OHeWIcTUvNFwiYy2CUkQgiLnClkQQSexoogqpLgkSrwg7hD53xhaNpdlXccOWvp6eGDli2zp7RpDL+YpJgImAiYCJgImAuODQF4EQWvp17S0BpEUilXRF38tmCAncsO5BEpDqSF8JIvoSKRg6LjfMd9H0cSaEElCf0iv84DXhdJYjaJrIAxoKAyeKwWSxIWwe9sbQZDjhCSI1UIW+f1tQ8WVdLGn8XUJBGJR/rV+FX9f8xot/T26K8NsJgImAiYCJgImAgcSgbwIQvD5Zi3W3ktlRQ1KmRPF79BVFGNPvYxnSjVKfXn+KYi7KxcOihWJIJEoKkbjRvaAEANxDYirYnfSIdaK8uKdGRJ6IaWskbVwoBZTuc6CaVDkhZUbDPfDODYhBdFUkr+uWs7vlz9r6iWMI7ZmVyYCJgImAiYCIyOQF0F45fp7tVw4wbT583jyub8x7/TjcductL74EieedCZWWazztRyIdUB23H6PsZiL2X9why++CXE7dPXuHPlw/cp5YrHweQxXhpj19X7HwTowMmbGETKGo2aDKD1uaYd12/LHIN9r6IaTLN/62x/M2IRRYGYeaiJgImAiYCKw/wjkRRBW3vGI1r2thV/d8T3C4QAlbicel405J76LT7z3s9Q0NRlxB/k0iSUQN4Lfa8QVCEEQElBRamQpDOoXiEVgojcZ7wmH68GWvPZ2wUb7q+f/yf2vLytY/2bHJgImAiYCJgImArsjkBdBWP34C9qmN1byqxu+pksTV/pcOBwWokVVfPqjV3D6cScNj+xwhZBEeEiXON6tiYqhBEKKdaG33xAomgxNiNFYQgSGc4UMWkuEHIViejErKVz191WvcPOaZaRFZ8JsJgImAiYCJgImAgcAgbwIwk0/+z+NnjaeuPsXuqGgutiFxaISKa7n21f+hBl1U/YcqkT79wUMwSGf14gnkEVRhJXEcrB7s9uh2GdoGEjxpEO1SZrki5ugLWhkRFR64PA6kDROEYeS1EnBqTsAGzpgW0DXg3g2uJ17c9vYYhvfWIdDFWZzXiYCJgImAiYC+4dAXgTh1FNO05y927GHunRvQHWRS6/YWDb3eK750rXYrcNIIA+6EgbHJzEDsjMeS4rh/s1x4pz9u5dhXTtkdouVkEyIqeVo75mDUlsCrQH48wroiewydjFUbLHF+UHJNjabRGHi3FdzJCYCJgImAocgAvkRhJNP1dztb2NNRvW6AXWlHlRVIVkzn8+efylHzZyLfUidAR0nyUYQ0SLZDevBiAOlniWo0CYaCcMUcDoEAdanJDUqbn4aOkL7nmGVH96zAO5Zts/UySwaV5dvZoXjELa0HKrPgjkvEwETAROBSYJAXgThtBNP1Dw71qLmMkSTGRrLPdisVrZ6G8k5vFz/vgs44oTjdo3iF4IgtRAkCFH86TnQJL5ACkK6JIXRYYgMHepNyNF9r8GKlnGdqZCEj1avpccySWI1xnX2ZmcmAiYCJgImAoVGIC+C8ONvf0tbdtctejReIJpiWqUPm8POFt80SjzF3Hn+53HPnb4rQZBCSD0BQykxGEeb14QybQq0iFUhjuK2QG+fkaZ4KLeuMPzkiYLM8G5fB3f7d6tIWZAr7dlpaWkp7znzDNRJYAkKRyI8/NDDqJPgWRPX3TnnnoPdNorKpQfonu9+mVwux1//+ldiw8UUHaQx7euyS5cuZcaM6RNwZHsO6fXXV7B+/fpJMVZZRE455eRJMda+/n7++Y9/TgrxOYvFwtlnfwiHYxhRwAOEtt/v59zzzt3n1ZRnH/yTduMVl+hFhPojKWZU+1FcHrZ5mzh10RK+8bGLd335Sqpib0AvXqR1BWHGXGgq0wWWSGSgSGo6JOC11ShF7oLoB+wxI1kcJAYiX72G8boBz22AR94cr9526SegZvhwzZqC9D1Sp7NmzeKWW2/Gurdy3iN1cAD/v2P7Dj7+8QuQD9xEb4LnAw/+BZ/PN9GHSiqV4hMXXEh3d/eEH6sM8MqvXMFZZ501KcZ66y238sADD06KsS49Zik/+MF1elzaRG9vv/02X/zC5WQnQRq91Wbl/vv/RHFx8YSGVbnj+9/U/nrbLeRyGv3RFHPrioi4Suhw1/LFD57P2cefijKYtidBiN390BdC64+g9YbJ1tdjO3oumggaRdJ66ebcxjaUjRtRplXlr8I4FpjkoZ3WCH4fbNtuZFbsq41WLlr62tc5970Kr4+ve2Ho8N9X8yZx9QAKRA1cXAjCrb+4ZVIsujt27ODjHzMJwlg+Pvs6Z/IRhCs566z3jTcMBenPJAgFgRWTIIw/rso3zvsv7a3lL5LJ5MhqGk0VPto9NYTsxbgcTo6eMYf/Pv49lKp2nRTgcaOpVrKbOkklo7g+/T5UyWLojQ9kMajkuiMo2zajVLiNOgmFakIQ5s8BSaPs6ILW9l2vNLi4i+hR4xRD8EnKOe9oy29Ebgc01RgkQco9B6OGsuMgm/7Ta/Datvz6GsNRZ9a+SUoxCcK+oDMJwhgerDxOMQlCHiCN8RCTIIwRuBFOMwnC+OOqfOzwBi0aCpJMZynzOfC57Lp7IWF16Vdr8hZz84kfxu32Q1ZBm9uA0liD9kYr6WQY28IZZHd0YHX4oakEJZcj+9RrqJkUSn1p4eMQXA4Qk61YD0TKeWirrzWsC1ICumTAlCMukrc3QjQ2Mpoitdwo5a4VgySIBSUSh7ZuIzhz+WZ44I2R+xnDER2WFB+rXjuGM/f/FNOCsP8YDteD6WIoDK7S65VfMS0IhUDXdDEUAlWYNC6GDzYW6VqB8ZRkMHhl5HqAYlY1shDOqJ/F1UvPhGAMbdZclKmV4LNBKI7WGyLZ3ErijTX4TzmebDqKdXY9yppNKB47+FwHPi5An4xUjgzDaccZJaRFuVGsHNIk6EoIwtDaDoN1I8TaIWRABJ3E6uB2wvypRrnroU2yNzbugDe3wi3PFeQJuqWolQe9B8f/axKEgtxSPabDjEEoDLYmQSgMriZBKAyuk4ogSHXBTFajodxDwuahxdOANmBGX7pgEdfNOhmtrQ/tiMOwHtYIfXEjENGmklmzlcSmZlw+F4qqoPrcUFmEUl5kuBfEJH8gmyz27b1GDYUpNdBYC8Eg1NYYFoYXV0J1yU7CIGOTSpMtHUYVyWKvUaBJ5lEmVpEaqC3fdQZyjVAUnnodnt8Er7eO6wyDaoZPVa1Hvh+MZhKEwqBuEoTC4GpaEAqHq0kQCoPtpCEIH2jw6xYEl8NKqcdBwFlKh7OSwQpNxxy9mKsOO5miQAL1gyejiCM/kACXFS2ZRVvfhrZlI6rPiSKEwOuEEi8cPt1wL0g6pOzmpWTyYHXH/cV8UKBJ0vB2D66V/21th9Q+FlexbFSX7XR/RGLQ2mOMSvQb5FyZi3w1VMHSeTstIbGEIZXcE4S1W6DEB09uhje2jUs5aok5uKjybdqsyf1FacznmwRhzNDt80STIBQGV5MgFA5XkyAUBttJQxA+KARBgaoiFxZVpddXT7dlZxpWfV09//Ppz1G5fBPl8+eS2dGFtWk6ysxyFHHL//VpVJcNZU6DseDKztrlhAXTDGQzWbRE2lh0AyEUCfbbn5x1IQC9QZCASSEjVbvFOQgJ2TIQhFhTJr4TPevinSbny/XlXKkhIcRFxjzYhgY2SrqMuBresxSKPAZJkHm8uBq2dxqFnCRG4bxT4NLb4Zn9ixkQcvDxqrX0Wg6O5WAQApMgFOilYLoYCgOsGYNQMFxNglAYaCcNQTi7qUizqArlYgFQFHrLZ9Kd2amCaLPZ+Pp/X8nS5S042/vIyWI/dw657k4si2ahrt1o7KLPPtkw26/ebJjyD5uKpim6VoJmsZGLxFGzFpRsFDWZMHbn+ebWSnCgBBVKGeliP7R2w45OvSIiC2cbu36RfpYm8QfiLpDjJMhQFvxA2CAUHqfhQpBrixtCyMFgk76aqg3XRHcQ7bjD0CqKUR95idwR09GOOQw1HDcsKEIOnlulBy3mjj0Mjj9M/1n57oMo9y8f0xMVV3JcXtE8IeowzJo1k5tvuXmSpDm28okLPjEpxioWhL888Ge8Xu+YnpEDeVI6nebCT3xy8uggXHkF733few8kRGO+1i9+8UsenCw6CEuX8v3rrp0UOgjNzRu4/IuTQwdB1tX7/vRHioqKxvwcjceJIwnMKedNL9EJQrHHoW+IW/zTiKu7qjuVlZXxvdM/zOzNAbKpNJZ4EkWklf1uFL8HRA3q6DkwtwHWtcCG7WheF7m6GrL9CSwzqlGtduiOoVU6UGUXvmVbfpYEWeDFRSFm/ZOOhroao4rkEy+Aww6nH2fgtGYdiPlfLBSyyIv1QMYm7R2XhLKTlMQTsL1rZzlnsRRMHUhpTKQIqDl++vxj2INRNpFAtVi49sv/Q111tRHg+PJb7Fi1lms3v0xSHagJnYMPrNX4cHi3mIUR7mRIzfCt0i2scQyxZIzH3R9jH/LwVldX583fxniZcTktk8nQ2to2KV5gMuH6+rpJofooH5m2trZJITojuIr6p9c78HkflyercJ309wcIhydHrRWn00lFZcUentzCoTP2nlOpNB0dB0d9diyjrquv0632B6tVVVXxox//aJ+XVz4xp1yTzbPbYdMJwibfDDKWPaVgy0pKeM+ixUybMZOKpMa8uAXLknlGgN+azVBWZCywYk1YtgZtWwepmdOwectRG4uRiyg2ix7YmFuzCfXtTTCtdmeGgLyREkmjP6fUchgYQyii7+j1Rf6kxVBfbRy3ZQfUVxlpjJKZ8K8XQRZ9cTGIZaKxyiAQe2t6eeqoYXGQMswSlCgpkwNNQ6M3EmZjdzs/eeIh+uNRFsydxxc+8WmmTmmgZV0z37/pZ2yN9O9yBbndnwxV84lwdV73XQIRv162mfX2PNIu8+rRPMhEwETARMBEwERg3wjkVYvh4vmVmqooWC0qGVQ2F80gp+xd3Eh2l36Xmxs/chH1JywGpw3e2ADJtLHYSnCi04F2199J+UuwHLsIa6UfrSUIHhuKakFbuxVlw1twxCyDDEgaosQJSCyAWCZkgR90QQzNgigtghK/8TVr2k59gnUbYeW6nWjIgj+tznBBSPN5dYEnvT7EKLMqJMPjX+tX8bOn/oaQhsbyKt533Mm09nTx8LJnSA8j62lRFK5zHsmSjdl93qGImuVb1S20uDO6fng4Gdclr81mImAiYCJgImAiUEgE8iIIly6s1lckiT+IWD3s8E55J4NhuMHJklvs9vLD8z7NrHedaOy+BwlCS6exsM9phBdWk5vRgHLCQpR0zsh88NnRQmlo3o6yYT3MqDWCACWDYKSF22mHKVWG1LOIHi1ZaMQ69PdDawe09RgiRjLAIi9UFO90J8ybbQRODqe2mMcdyOZytPR16Yt3TVEpLpsd+dtfVizjthf/tUdxkPm1Dfz47E/ifGEL/OOt4bMbXDbWnDMdf30lfqebnJZj2eb1/PypR3QiYjYTARMBEwETAROBQiGQF0G4bFHNO6tRq6eWsG3fQROnzjqcr7zrg7gqSo3MBWlvt0BAXAEDKY3io3e70DSV3LwZpHvCOCqrYEYxRFJw919RDmsCWfQl4E+sBkOb/F2sCvJ32VGLq0BcBuKvEQIw3Po5GGdgsJ2d5ED+Pr0JivywZTsERqjXMIq7kcykuf/1ZbywcS3dkSDJTIY5VfV848yPUObxG2N9eQs8uHJXkiBWl2veu0dJ7Egywfm3/5RYakjw5CjGYx5qImAiYCJgImAikA8CoyIIGcXCJv8MtBFK/H7rv87ltNkLJGgB5g+Y+cXMvm6b4SLoChhuB6kE2BUiF4iQzWpojY2krBrOhnIs67ag1BQb1gbJSJBsAllMS4qg1GsQgUFpYyEJErsgf5MyuXNnGj+LGqLEHOTbBuWS8z0+z+OEq0hpXHERGNxE2TPw5NWtcP/rRo+iMPnVM8CzZ5nPlv4eLr3vVyREGtpsJgImAiYCJgImAgVCoGnKFO743V377F1j1lpdAAAgAElEQVQZtCAkVTtb/MPXU9dLfWpgd9i54eLLOcxeZPj3ZzcYmQKyOOqph907d+5CGiIJQ6I5EkdLZsBhgzIfqmgKOAZSKQezDkS4yGvUf9hrE4Iwb9ZOgjBJatXr81m1w3A3fPYEKBsm2rqymFRFMYFEjC9++xv09PUW6LEwuzURMBEwETAR+E9HYM7UJn5xx+35EYS0YtUDFHXVpCFtQV0TFy49Rf9LXNU49v3/hSqxBr0hEDllyUSQ2gViQdhdvVBcDfI3IQdCGMRi4LLvqoEgfxedg8GshZHumnugvkM+xZZG6utA/z8twkt7CQAt9tLvtXHHYw/z2DNP7RHXcKCHal7PRMBEwETARODQRWBULoasorLRPxPVYmVOVR31JeXYLVY+sfQUyjw+I89cvkQhMRyHzW1GgKHUNZA0RElPHK4NF5Wfr0DSoXtvhp2ZpFX+9Km/snxLs+5y8Xm82GxW+oNB3Y1hNhMBEwETARMBE4HxQGBUBCGnKGzyTefcJafyyaWn4bAZugi72BPErTCvycgW2Dp5BCnGA8wD1UcoHuP/3XEDH/6vs/jA6e/RCcJDT/yTF15ZTkd3J8nUXojYgRqgeR0TARMBEwETgUmPwKgIgrgWtvmauPGCLzO7qm7vkx/UFtg986CQcOksZQhVOUS1AiTQ8fVtm/jtque56bs/wC4xFwNJG7lclseffYaf/fZXplZCIZ+1Q6BvIfcfOuYY2vv7WbVlC8HoxFDoPASgNadgInDIIDAqgiCzbnXXcvRhx3PVu8/GZd+HCuFoIRpMQdRFkNiZrrg3AU/dBSHZC1aoLDECIS0D4kli1pByzKKCeAg0vdR2Lkcqk+b1lk385F8P89XPX85JS44hlojzxltrCEciHDn/cF5f8yY3/OaXprvhELjvhZzCVR/+MO9dvFi3AL6+cSP/c/u+A5EKORazbxMBE4GJicCoCYJS2sh1n/keRW7P+GhvCzEQUiA1EqJJNHGjJ1IoRW7wu/Ys2CTH15QbcQ3SLAMll4fiK32J7sK+yjlPzPuxx6iymsaPHn+ANW3biKdTiA6CiDFd/qnP4LDbuPfhB+js7tb/5rDbyWSzSO0Bs5kI7A2Bk+bP55vnn49NPjtAW28vF9xwgwmYiYCJgInALgiMmiDU1s7gaxd/H6tlZzXH/cJUAuskzbE3jFbiQ1m6ADb1gpZC8apGhUY5ZjBoUeohzKw3LAd7ayKgJIJM8uV2GkqOEhOxtyDJ3fuRTArRcAgd/NoHssP76ZMP89hbAxoJA2MdLOAhao1mGxsCYoNyilAXkFRGxtGmKaSlfvkkbn63m7uvvJIiz8402mgiwcd//GNC8fgknpk5dBMBE4HxRmDUBMHvLea7X7oFh925/2MRa0A8BR39aEUVeillZXoF9CfQSp2G/PIb60HNGS4Hqb5YX5F/hUfpf5BYyM+y4Ld1o68I4paIxIzKjnKMKDOKm0JKPfvdIOmGqzbtRZJxfKa+tbeTDV3tnDhj3jvuGnEniPqi02YnkU6xqbuDp5tX89AbL+//RQvcg5CWmtJSdvT0FPhK+9f9zLSLc8OVHJv048kZu+g+S5plziB/8Xaz3WqIUFk1hffESjkjVsKctAchCFEly5uOCI+5+3jRFZxUgtdiMbj2wgtZMmvWLgCK9emyW25hQ1vb/gFrnm0iYCJwSCGQF0GQWgx6CqNu0bfyvS/dSklR2f4BIW6FbFa3HOTa+9BKyrAcNR9KHNAZRan1o7UHYMWbKA1lhgaCLN7VpcZCPto0SNlpyzWlkqMs/h4hOBp09hkaC0IYBos/CZnYsMOQhi5QS2TSfOOx+whkEiycMo3zFxxDpcNNS28333vsfl1Xoisc5NcvPD5pAg6loNdvvvQlbnnkEd7YvLlAyI29W3mCT4+WcFWwQV/sh2sZNG4oaWG5I8y3+5tYlPTu9YKPunu4pbiNVB7Wh7GPevzOPOOII/jaeecN2+FPH3yQv7/66vhdzOzJRMBEYNIjMGqCIDP+2iU/pqF22tgmr8sjZyGcgFiSdF+YRE8I5+lLsM5rhHgGemMoDjtaXwza21DcuV3KLHPEzF1Fk4ZaCgbdEUIGpLjTQHaDFo6jiWpjIo2mKKiDMQ5CGCJJNKk0KeWmi9wo4l4QoadwdHziGHavDZHT0KwWut0WerJpsqkMqt1CiWrlL888zl9fem7SiiBdJzvU2bO5/Je/ZP2OHWN7Rgp01uFJDzf2zCSf6urtliQ12T2lrncf2iOeHv6veIdulJrIraKoiLu/8hWcA1kvu4/1gWXLuPXRRyfyFMyxmQiYCBxgBPIiCBfNq9Qc9p3qfp/40Bc4dtGpYxuqLMj9EbSeMJq4C5YsgC39aFYNtcwNsSxKhRvE3/vvlViDAZTj5kKxD7Z1GAv2opmGJLMQAyEB/VEjZkD+1hsGvxNSAzLOmSyaqpLtDaPUloPUd9rai+qyk04GsTjsqKVF5FI5tK4QVqny6FdRaktRRE9gXcvwlRbzmb1YOcqLQY/X0KA3YChKJtKgWNDSOVJzGtjRvJUi1UPInibiV/jDk4/wyiTdzV159tmctWQJ27u7ueTmm0mm0/kgVfBjxJXwSPvhBbnOFeUbWeUonLVpPAZ90RlncMGpe//MPrFiBdf/+c/jcSmzDxMBE4FDBIG8CMKFc8s1t932jlX/5CX/xblnfhpV4gJG02R3H0mgdQbRpkxDmVKGUuMzqjcWO8mF4mRXtkA2ieWYmeS2dWPx2aGhAkWKPInZX3bj0weCFGWhlZ2/3qSq40CVxkEdBolv6AuRSStk0xrWefVYJGixNUwuGiObTpDti2Bd2IjV54W2MJpVRatwoFgtsoZLmSXDBTGoCCUBkKIQuXuGRGmRQSSC4Z2VJ4XUeNw7EdLnH9dJTC6cIJvKYv2vxRDLoLSGSRRZoMRJT7Cfq2+4lvaOySc0dd0nP8mxc+boFpArf/tbVk0QV8PxiSKu7Z06mqc172OfcfVzbem2vI8/0AeW+f3cecUVeJ17jxt6ZPlybnz44QM9NPN6JgImAhMYgbwIwqfmVugWBPExS2uonc6Vn/4edtvIJthd5i6uhe4QubY+cpVVWJcchmZVIJCACi/p9duJPrUMd301VnEBLJyGWuJBsaqGyV8W/BK/XiZ6xCaLcSCG1hkgF8+iNjSgNBUZWgk9UXLhCLm+OGpxCUqjH8Vh0RdqhJAILYimUDJxlHLfnkGREty4dttOy4LELpSX7IxvkHmKNUPiJoaWlZa/S7ZGZwDNVYwi5bBnlkAiAxkN/Ha0ZJae9k5e2Pomt9xx26RyNcjz8furrtIDFaV9+557eP6tt0a8VQfigKv7G/SAw0I0CVx8f+3qQnQ9Ln2ec/zxfP6ss/bZ182PPMJDL744LtczOzERMBE4NBDIiyB8Zn6lJi59x0ARIY/Lyzc/fyPFvgEtgnyxEHO/ZCxILMD7T0D1uqEvMbAbV9F6I2TWrsNa4UWRIk+S0ijpjLJrl3RHl8PYkecToCiBiN0Bsu0BUr1hHEsWopZ70VJptDVtaDaNVGcQx7xpqFUeNElfCyRR6or0qpLpTW1Yim1YZtYYwYtDm1gKVm4w3Bt6qWmr7kbQoknDkBFLohR5Ubx2o/qkfr5mxD+095HtCJBTHdjmTkep9qK1BVGKnLprJN0XY9OatwhV2fnmTT8iK6RikjSvy8Wfv/51XYJbIuO/eOutrG9tnRCjv653Kscmigo2ltPq3ihY3/vb8U8uvpijZswwusllYdNGmDrdKLeOhARl+ezNN7O1s3N/L2WebyJgInAIIZAXQfjcwmotnszgcRqyvmLn/+pnfsDU+pmjg0J29T0htFgKTjyKbDiOBTtKrVevEJl5vRlLOoE6vcZYdIemKA5eKR9yIMcKqejoJ9MeQJtSiXXRNBRFRWsPoa1rJRtNkLYqON81Xw8Q1Dqj0B5GqfLpFg0tlSVnS2CZU2NYA4Y2cS+8udGwGGQ1NNWK1h9FqyhGmTEFNnSiWO2QDqGU+0EsIOL2iCXRWnvJdIfgsCass+p1j4m2rhtFSlvbrRBMEo3HaFa7ufrWH78jeuR3e3QLTjAambCpdbPr6/nlF76gI7Wlo4M/PfQgz+5oJTUBtBquCNTz/mj56J7XPI/uV9N8pGZiWEp2H7Lb4eCuK66gvKgIUkl4ex2EQrD0WLAaz3VHfz8X/vSnusiW2UwETARMBAYRyIsgXLaoRounMjhtFqNiIwoXfvwrLD3yNGMNd9h36gnsC1vZeUcT0BUiF4yQDsawHbeUbDKEZX6TXtxJcdtRSrz5WQn2dS3Z3XcHyHWF4MSFqHYbuXgGRdwZ8SjZziDqUVNRnXadDCihFHgMUpKLpMnu6EF1g6XSB0KMxHohi7yILUmwpMQSuJxo8bROKHI2J1T6scyqgR5DcEYrd6GIJaO1C1w23UWitfWSy+RQT1iAgoKWSKMEk1Du1oMWM239tLe101OU5Ws3XY/LZufs407lvUtP0GM+7n3qMf720r8nHEmQ5+K/P/hBPrB0qT733/7tr7zHYeWy518iNgEWnoVJLzf2DOyix/nz/6i7l5+VbB/nXsenu6riYj3+wCmqiWtXQygIdVOgychCEkvPnU8+yb3PPDM+FzR7MREwEThkEMibIKQyWX19tFosWG12vn7rg9TUT92ZSSAm93x297KbDMWhP0wuFNPN+bKNVqZUo9SVoVRI1P8ogx+Hux1yHcmW6AqQFbU8t4v0pnbc8+eiWXLk0glyisqWVA+Z9duYu+h4lPoiKHKghZIkV2/A0VCGKrv6ocGYImMs5EPcBrLgdwTIBuJYGqailHugwmnEMhQ7IKWR6wujbNmG0lilWxtEmElcKbkp1bpAZGZ7L666OrQ5pbo1Ib6ti7c3byBe6+X2e+7i2x+/hPqKqgFiJoaRNP9z242s2bZZF1NSFZVYKnHQay8Uezz84eqr9TQ6yVxY/c+/0+By8clnnyc5AQiCQ1P5W/vhe9U/GOsnWmJXL6toptl+8FU3h5tDXVkZd3z5y9jEnSAEva8XSkrfeaalDsNXzToMY7395nkmAoc0AnkRBBFK0kskDHEzTJ17BJdc/C2KEqohhZxv5cbB2guS7ic+ezHXy+68oRq8Iou8m79/rPDLdWS33xtC64uQCcRIRxPYpzYS37wNvA7S6RTX3HY1WUXj+9fcjSeWwbKwAYuoKnb3kylz4cipwxMfmbNkI7T2kuoJYT18NtZpVaBo5F5qRZ0vhCBHTsSe+jpQZ9WBuBGEFPWEyPVFSQejaDY7tilTSPd0YF88C6U7SDoZI1tdjF21Yh3wEw+FIRAJ097bTUNVDVbVwvL1a7j23tvIin/5ILXTFizgWx/9qH71vz/zNGdYFZZ3dvO/r688SCPa87LVGTu/65qrKySOV7vd384ffJ0TzqIzOD+71crcKVN095TILJ9x1FEsaGrC43Ty1rZtfOPuuwmbEsvj9TiY/ZgIHFII5E0QZJsfSaTwOm1GZH0OPn3mpSyZsRhFTPASjFdVYigSdvfrsQb7bIPVG2ULJhoGZSX5WSBGA78s4rGkXtVRk4U5kiSbTKOJgqP0Y1Fo7tzIjX/6Meef9DEWTz+K371wLxd9/Ap++civ+fB5FzFj6pzhryipj+LCaO0jW1WK9aiZxi4/nIb+GPgc+s9aNAWBXpQaj+GKkbgFGUsggiZpndEkuUwWRdOweF2o5T6UqmKDNO1ukRHMJFBU8Jb/ydyyGolkkkt+fi07err0sTqsNk6YfwRzpjTx1rbNPPvma6NBbUzH3nLZZcxraNCfjfCy5/ArcM2rK1jWaYxpojRRRvxB7zS9BsP+thecQa4t3Trp6jMIORDhpK5AgFjSkJU2m4mAiYCJwO4I5E0QZPGLJtK47BZyaY1sOselV/yIo8rnoWAn58lhmTfFqGmg++k7jUBBafJdFtS9NXEplJcOpAQOlHoej3s1SEJEKyGeNBZUcQ/IDlJiAuxWXcXw/277Npl4gkvOuYIbfv9tPn3xN/nG9Zfz21//HZ93L5HvQj76IrpMNFOqUJpq9eBLRYSevFZw29BiGVKvrccmIlDTqo0gRBmTkISB6pW6myKdRZH0S58LijwGhruTA9n0SmyGa+B/g5aY7qB+/jNvvMqqLRuYN2UqR8+aR4nPr8cspNNpbvjL73lyReFqOcxvbOTGSy5BLyDV3QnNb/N6Tw/fenXFhHAv7P4oCUm4tm/qO3UYxvKoPebu5acl2yes5WAsczLPMREwETARGIrAqAhCLJHBrio4bX4WLz6Td194EVXlU4yo/2oJyNNQRItlIB3ynQvJwry51Vig90USdGuCE4p8O4+ShVBaPvENe+t7kCgISRFXiPQlpEQW3ZzG1s3rueWWq/nMRd/iLw/9ivLqJpq3bOSG63+3dzGogYBLiXHIBePkLFbibd24jjicDBnss6tQNQvp9duwOi2GtPNgLMPQ8QhZkDHJeCRzQwI99jZX3VLjNESbRBNCd1nEdfKlW3UG2mDdjMHfn3jtJa7/050FefLdTidf+tCHOGPhQsik4fVX6AqH+fKLr9AxgU3XC5Mevt03leLc6KuS/tPdx49LWgqCp9mpiYCJgInAREEgb4Igy080nsauqXjsRXz3mnsomdeEJguc34nUq8ls70KtEDO5f9dFbnDXvG6bsZPfvcmiOBjDIAul32eIDCWShiyx/E+KK8kCqVoG6iuMH4SyuN5601exO9xEwwFefeNVrrzqBo4+4vi9X0SvKSFiTBEjxqEvzOPLHiXgVDmmfB71jVOxTKvRgxxVrx1FYi0ko0FIicxN105Qd4otjYoADco6joyBpK796E938tTKV0Y+eJRHSMDq1z7zSU44/HC0vjB9Pd28/crL/ObNNXTEJn7p4LkpN9f1ThsVSRDLwQ0TNGNhlLfPPNxEwETARGCfCORFECTNMS0iR6I6nMzi9VXwjZ/fS03jVLS13SALYDpHVgSQKq1Ymip2JQhCIjbugKDo1e8WICbk4LBpRtxCZ78R8GizoVls5AIR1IYatC3dKB4X2LMoZb7xC2QcgEYIwvKXHufe3/0Yr7+Utp5+br/tcax6DYV9tIFaEBLfsGX9m1x3y/8wt2kBX3z/5djdbpRSw12gSMyDpENqClokjlLkM9wQIsUsGgmjIgf5P9HZXI5nV73KD/94x7hXhNTTGi84nw+cehJdfX187ts/IBiN5j+4CXJkTcbOb7vm4MojJuF+bxe/KjJLIk+QW2cOw0TARKDACORNEJLpLFZFIRXLcM6l3+S9534aJEUxmkaR1MBYhvSGVqxTfKj1ZbsueqEIrN8+fNEjWfjnNhqm9f4wdAV04aFsSAIKNexHTkXpS+gVGCm1o0jwYy5jHD+OLZGI8eMffI6O9q06ifncF3/IwoX7sCAMXlvT6Olu5/prP0Mymebaq35JsacYyvx6TEEuYGguKFUlWOoq0bYFUCQMIh1EqfTrwYnjktYp4xlwXWipDOlMhrfDPfz60T+zbkPzuEs2f+Tdp3HZ+efQ3dfP9bfdxarmDeN4Nw5sV0U5K3/uOGyf2Q33+jq4w99hxhwc2FtjXm0/EZC35KXnfQSP241sGO559DH9M2s2E4F8EMiLIFwwu0yzWlScVgvJRBbFWcyRi47Fby/i4+dcDtNLUERU8JU1WJbMRPHvJoespwSGoDdomOXlS9IcB90KUmWxTqwOIGWZc1u7ybSFsVdVw7RikN13sQtiKXJvNGNpKDMC+ca5rXj9We74zXfIZjNU1TRyzXd+h2WEtMtINMSt/3cVWzev5dzzr+DUUz6kkyPNaUOJJsn2RFFsoo/gwVLpNaSlJUZD6i5IDYaWdhSfc/8Jj6YhxIC+MMlMhh6LghJL4yjzsLJrCz+641fjqpVQV1mh85HeYJCkVL2c5E1Iwh2dcygZJibhTj2VsYuB3JdJPlNz+P9JCByzcD7XfenzeoaVbBou/d71bNkxMeTP/5Puw2Sda14E4aOzSjWXzYLNYiGXzdEViOGz2CjylXHhSZ/giOoZWOsrUCQP//Qj91y8ByPuB9ILFQnWE8Gh7iC09xrYNVRBZbHhz1/fitbZh+20xcbu+u0eGJRA7ulBrXaB35M/5pIhICJFuq7x3k/LZjI88fgf+Nfj95FMxvj6NbdTVz992BPELRGJBLnr9mtZ99YrlFY0EEpkqKioIZ1K4rA6ueScy/FlndiLK1FLJA3UhRZKoZS7QVwyLd0onZ1GhsMwegcjTlCwEcEmycyQQMVwnGxfDK3Eh0XwbAuDz4rms7N+SzNrt29m644dvNW8nu3tbeNuVRhxvBP8gPKsjRt6ptOQMaoeyqPyW38bf/J1SVav2UwEJhUCIo5113XfpqbCkBgPR6Nc+PXvEIxM7NLkkwrkQ3yweRGESw6v0rKapoutiGW/JxTHb7MjFZyWTjuaz51+MUqp10jDWzQDxG2gv2GlcpGmZy+IMJDscEVaWC3x6v55vf7Ajm6DJEjH9ZVomRzZje2oC2eiup1o4sKQGAannVxbP7R1odYa5vsRm1xb6ihI3MLgK18yKQKxvfr9xXrw5BP38bcHf828+cfwuc9fh822p7Wir6+T3935A5rXr2D+guO44JNf03fSO9q24HK4qbEW4Q6mycbS2JYehkXGkMmSe6MTZXopSjJLrjcKgU7UGVWG7kG+bdAt4XcZwZtCDvqjZLd1Q9aJpaoIpcwJaQ28NnIR0YIIoDQasSHRWJSHn3icux/406QqBpUvPPtzXEXWxvd7pzI97eIeXyd3+Sdfye39mb957qGDwPELDud7/33ZOyqszdtauPS7Pzx0JmjOpOAI5EUQLphTpjmsFj3QTb5ncjlUqSSgwdS6mXz1U99DlYVY4gTE9F9ZOlBWOain42UdTjLRFLa5TWjbA8YDW2ZDFbeByPCu3brT3ZBIobX3/3/23gNcj7JO///MzNvrKe/pJzkllZBGCkUIhA4CggvIKsiCiq6/ta3dXddVd9fV1V396+qCoou9oawN6RBKIPSQhPR6ej9v7zP/6/vMOWkk5JwEJGWe68p1kpyZeZ+5Z96Z+/mW+4ZwiLJmYHmDGE0xtJYK2DWItX4r+vx2uxPg1YZEKKRjQrabWmN3DciQtIakN6Q7oiStF5Ib2Xd92Ne7iy/80/WqxfFTn72dKVP2mFKZpsmWzatVQePIcB/nnHcNl7/lXXi99qpTDXlhD4xidY9gSSfDrKl2rUFy7HMDXqxkHmsghZYcVg6SkyII8hlCOMYFk8plJdhU2NqH5gvgbW9UEtbWYAa9PozZn6RQSJCdXkW0okKdl4grffxfP8/LWza97jfZsfYBkm44L1PBXaHBY23qznwdBBQC81pb+cqH/w5fNLQbkTXrNrB6zXp+cN99DkoOAhNCYEIEQUktSyCgUCK829HRPn5lJMbnPvD/4fXstwKWF6K8oPtGMStrYUojensljBawwm5waWhCDHKZffPvQhhG00qOuDycpOT1Y2bzuCoDuCvDSuBIq6+EiojdzSD1DUI4xjsB5N8Sch+J2y9/+f/pTVB9AMGjce2ARAaSud2AFQp5Pvupq1UK4dIrbubyK25WpCaRGOaeP/2IFQ/fpfwo3n7Dxzjt9It3M/TdBxj3gegZwYxVoLU2qXPQsxa6eDREvJjJPMWHnsMTC6FJimGcwEzoso01g4gCpaQZ/F7MzkGKXSN4ls5Wp2yN5ux5WRrFnlE6En38zxN3MW/GbC455zxGEqN87r/+g4GhsRTPRD/X2c5BwEHgqEZAVDJv/eAHqWxt3PNslWfhcIr+kRHe+bWvUTwK/FGOahCdySkEJkwQZONkrqgIwt5CPC7DzRc+/G0qI1V7IJUX72gKtndj9Y9gev3oF18AzWEYzqI1RGx75PsftzseJEw+OGq3/UmoXeSQu4coDCcour2qE8BfHcZVE0GrGdNYGBcWkiiA7CNkQX5KIaQUze3dOujzwrRGVeRIwGN/3rhUsdQnyL5iwTwWSZD6gv+9/V959un7aGyaxmf+6XYSiRG+/tUPMjjQpVIOf/+J/6alVV7GB+imGCdHA3HKAwlK8QyFeJrgm5Zi5vPo8+rRMDBXrUOvDqLFovsaQk325qwMYiVylMSBsrGO0kgKV9FAb6tEcxnsev5lhl0FvvrrH9DT2zPZozvbOwg4CBxDCHzymmu45IzT7JSvDGXSlVILJulkePtXvsKgWH47w0HgEAhMiCC8b36dKu1L50vKi2Hvl6KFxQdv+Bxzpi/YczOKjHDPENl8nu0hH40nz6RiRoutBdCTQov4sMQSubsHa9cW+q0ilR4fvR6Y2tKCNpxULohWfQz9rIXQkcByW2hRN1pnJxRMu4JMpQuKtrSzMGQp9BMCsL8Do3xB6mJ7VumiRijbjKb3KCvupUQoJ/LIQ7/lVz//Ov5AiE985lb+93tfZNfOjQR8YT72/75KQ3UjeDxociwpFNyfKAhDF8+F4RRWPE0pkcVyuTGTGXS/G1d1BL0+ija72d43nrHTHpL+EPlly0ITf4v9z+VgF9QylZ11qW+U/GASb2U1xUwKzywhRjniMS93/OE3rHrhOdWZMTw6gogoOcNBwEHg+EFAyZ7fcguGRFvluSQdUxIhFeXVsXHLN7/J1h5noXD8XPXX70wmRBCki8Gla7h0HY/bUMWKe4/Lll/HZcuvtZlqKqvIQaKQY6C9hlRRY8bck3F7PVijeTzS0hd0Y27sgPsf5z49zu3rnqTC42Ne63Q+tPR86BnBmjoNrTmG1hCCdA6sBOTlhV6GpKQhCrbMcDKL1VSrNBms4TR6OADlLFQE9w3bSy1CdcWBV+qSEtjb0hlY+fif+MkPv4xhuKipbaanezvRYBX/75pP0XzyQrsrImOi6QVbvGncI2EcmHH1SJl70jaKspRRlInmdaNVBv8iY/AAACAASURBVNFqotBYpQop5XdSY0H3EExtwJRCzcoouIpo41/2A90Hci2k2FNMtEwLayBBeSSNKU6ZYgBVEcBoqlJzFC2JTDarahA6urt46Mkn+M2f/+gUKr5+3y/nyA4Cf1EEPv22t3HRokVQFbaF6aTbS/Rlxrq35McNX/0qPcPDf9F5OR92bCIwMYIwo8oqWyYRUQXUhJjua8m8+KQzePcl77NrDhIZetIJvvTSw5xy4bksbZyhivHKQynqahrYNbKT2IJpVFp+Rru7+NJDd7F9106F3pvnLOJjC85V6YVyUwPuJSeDJux3BKXlvPvlC2wYUYTAEmZ8+Rlo/iDa9lEsrwaeIpqkC4aG933xS6pBfB6EWY8PWUUPx8dUDV27IwG/vfM7PHDvz9VWspoP+aO867IPMat1AdasJvTKCFpfGqvSjaZaO4btjolXRBJMrEKRgWScKs2NS9PtwkmJdAiOsn3Ag5nIYHaMYJYs3GeehDaYtb/TIV1hqilxqAM4EIrHg0Qx5DhCdKRTRDo1RBNB+jpDXjSpVTjAvhJBuHfFw3zrjtspFMeMtY7N+9iZtYPACY+AtDX+8KMfpb6uxn6+SFRSvvd7FWHHMxmu/4//cFw8T/i7ZWIATIggvG16pRXxudXKs1Aq45ew915javVU3r3sFjLlAtuSw9y1Yx1rR/uor6vjgze/l2DGVLn4nu3buPV//5VQ0Ms17/p7MrW1/PCXP9u9gp03azafW3YlFRu70W58M7oQg3T8gGdirekHK4jV3Gi3DUooTUSIaqT9UYPeEdi8bc/Lc/woQg4CATt0r+yZUzaxkf+XFEVllEQmwef+6SYKabuAz+P28o5L/5bFDQvR6prRWqrQXEJEDHUcKRDURofRGvZTkBz7zNFUgvd/+ytcvPA0rjvnQnwer0rT5ItFZdEcjIRJ9QzjSWtMaWlDE3GoeA5iAaxMkXJHL0bArSIPrxguHTPkJW9o+P3+3WqVmWyGl9avp29okPPPXKaU1Hr7+6muqsLjto9TKpXUPH71p9/xg1/9wokkTOw742zlIHBUItBWV8etH/gAbulcEAdd8X7Zb7ywdSsfu/32o3L+zqSOPgQmRBCubquwYmGfep+mpFBRwul7jaLhobtiFgWzjOgl7D2aG5u44drrqPGFGd7VwTe+8HcE3DrTz1rOM31p9ZIaH40NDXzyxluI3/k7znjP9bg4eI7cWttLua+AsXA+WoPoHJSxLA0t6lcKhdaTq9EKUhApLZcHWHmr9blU+Y+5O45PorqCjR2b+Yd/uIk6acMELr34nVy28HJKfXGlz+CaUoO1Y9TeQ0L7A0m07BDatHp1/tt6umhraFReDhJ9ECvmf/uZ/aWc0dTC8gVLqIlW8KenH2d9x3b+5eOfwdg5iq+oM/OsJRheF9aqLrSTa7GGs5RTCfQaH8lijp7hIWY2T93HZbJ3eIgv/foOrrjoYqY2NTMwNMiv//R71m3aqFpTL1p2Du/8q2t5/2c/xUnTZ/Dmcy9g9rTp/Omh+/F7fVxx/kXc8pmP0zc4cPTdoc6MHAQcBCaEwDnz5vHPN1xvW8ZLfdV+z2IpUPyXX/yCR9esmdDxnI0cBCZEEK5qiVqxiFcpKaayBYJjrY7jnoIlw83WyPRXGjGN4SuRB/mghlg1G3//EzwU8FdUsSvcus8VkOK56y86j7ecPJ+qalv962DD2tBPKaPjuvhUNLcLqyuBNZBGrw5hyeo7nYGeHWhNVfumFA51zf1e7nnmAX78o/8gGvAyu30+f/uuz+OO5ynmC7jPPxUKZbSRHIgHRb5MeWMXhpVVQkRDqQS3/Ne/cN4pp3LJkjPoHx3hq7/+IfH0gdXLXC4XX/rEP+DqTDJ98TxCFRHla6FJwaLfQ7k/hRlPYLRW8OenH+PWO3/OJ6+9kTPnnrKbJCQzGW75+hfpHz14XtHr8ewjiezxeCiOpRVmtU+js6ebVCZzKHSc3zsIOAgcpQhcu2wZf/v2a9Hk+azSvfs6qq7ZsYOPfPe7joLqUXr9jsZpTYggXNkStaIBN0Gvm1yxpIoVDV1jOJ2jQkR/DDdboiImdAgDJcsi2L0ebylLZTTMtuh0LMnJI7pKGlfPmMY7r72WYChySKzE9Ii5c9EiQay8KS0WaEG3Ug+0RG54Zw/aSD9aQ8Wk3B+F9Hzhfz5LZ+c6QgE///j+r1MTrVEeB+XeYfrbmhjpGWbm7JPRZlShuwzKK9diVAexYhFu/eOv+c3jD6kvoRAjYfGyij/YkBD/pz/099QWvIRMF0YJgpaH6qkNaG1VpDoHKAwMUDW/HdNj8Lv77+O2n9zBzRdfyZtPPYtwIEjXYD8f+O8vk8gce26Kh7zQzgYOAg4CE0LgjLkn84UPv9+uEZNHTiJtd0YB8WyGj9x6Gzv7+yd0rNd6o6UeN2fqZUJmmZIF6zWD+8s6mfKeCPJr/ZnO8Y4cgQkTBL/HoDLoxTQtimUTj0tnNJNX9Qguj5ctkRkTsi32923FkxlFUha9kamkPWGag0H+4ZT5zKqIovl8sHDJIV/q5a1D6KEaJURU2tyFZ2oLtEVE3xFTHB/vXYlWG7V1Ew5U3HcQ7Lr7O/jsNz+K1zC58a0f4PQFy23aI90IG3YynMuxpSJCVbiSVDZFoKUG06ezetcmnnjxOTbs2j7p9sF5J8/lXVe+DasvodIYfjwqSmHEgkqSOhfSqW+sp6a6mlUvPs8/fvXfVSdJ0OdXKYJsPkcy66z+j/zr4BzBQeDIEWgKBrl4ylSKpknRsnC31RLf1EVek4V9gbw4e3jcZJJpClJA6HXRP2rrEsQLhcO2ZpcFSayigvbmRk6bP5dT582hKhxhy45dfONnv2TrG2DSVGkY3FxMUalD9fLTqTn3TZQxyXf3MfLEc2xfu4UH3H7WFR23kyO/8177I0yYIHgMneqwXVwneggBj6HqEWQEAz42RWZOiCB4hrvwxXsJeg3c4Qqapy3lYwvmUendq66hvgGmzXzVs012Jgiu78NM5ShZGp6zzqC4aROus+agiyDSS5sUQVCiSAcb4yv7sc6DYqnID+/6Fs+tfYL66iY+8/6v4Rn3YYinVVRiqNJPV1UEM5NHM3T0WJjnOjbys9/eedhFfoLpmy+6mAuWvgktnqMcz6oCI+k+yFd6+Ondd9HV1c2UhkZ2dnYQTyVf+zvBOaKDgIPAa4KAkPebZs3mr2bPtDuWqoJ2h9POQbu7QLxRLpwLD6y1Cwkrg9ASgxd3sm54mM+sevKwScLeJyDPlXF/Oolo/qWHT9P4jFca0dK0vO/tDD7yFOnNOwhVxsjkkgSnt1KxZB7m9j7ueeRJfqd5KLwB8/xL43Isfd6ECYKkFGojUqiokRbDJV2iV2VCXjeG28XmyMzd6YJXA8CdHMQ/uBO3oXPJ/IW884yL8OxvqSxph0gEfH7weqGx+RURhR0Fi+CWAaq3D9jCQuiYySSGVUaTFsSZU+1e4INFD0R3IJ4EaX0U7QRNY9VLj/Lju76tUgMff8+XmNrQtudUUhm2btrMr41hZrZNw+f2MByP8+L6taxeu+awycH4BwiuJ82ezemnLKauKkapUGRXfw8rnlxJb59jGHQsfamcuToIuMXHZelSTp/ZbosUtdXASBqGUra4m7Qet9fCxh5bGn5mPQwklcLsZ55aydrjQKdgisfDe7LDeEIhAie1k3huHf5IBanhAWJTpzG4ayv+cJTw2YsIVFTy/G/v5Ud4Gd2rcP2NvJNikQhet5uuE1iOfsIEQRbZQhAMXScvNzQi863hFhMnNLZEpmPq+7Y/HujiGpk4of6tnDXjJD560VUHliree0dp3Vu4GPQ92gXSKfCTF19k3ow5tL7cTahrBE3aenSNQiRAZ42fkUKO01pnHkQKGRgYITc4zJrhXmKNDUQNg2/85ssMJgaY3jKHj9z0BVsQapzRjqbYuHkT71/5f2p28kJ/vVi5ql3AUukcZzgIOAgcmwjI8+M/33QmM5obbFIwdwps7bP1CcR7Zf4U6BmFvrh6zmjnnIT1yMtkiiVufuhB0qVjW5tklmbx9kKS8JQpEPEpKfhiNkOpkFf1aoFIlExilEhtA9qUGKFZbWz95d3c4Q7SK0J0b8CQa9ZaV8e1Z52FdIUks1ne/+1vM5w8MaO2EyYIcq2qgh58HpfS8y6VLLyiA6BeZRpbI+2U9FfaIu9/jY18mjNdBT5/5dsndvmra2D2nH22TRdLXPfvX6KispJLLriQKfWNeDSdTD7H+m1buO+hBwkbbv754muYWVVvO0zu3c4ogkK7+nhg+3r+ffXDGJrO6a4SgwMb0XWDv7/5i0ybMstWIhtJqX2tQoH1I/184KnfT2zezlYOAg4CDgLAd6++gkYpQJDKwWWzYeWmMWEzC06fBis325LvQS/MbYbndvCTl1/mF1s2H9P41ekaH7ByBCuqoLGS1JqNql6tMFYvJX+XRVa5WCBa14QhJOGkaez88V18xxth4C+8QJJowV8vW8aNF1ywz8Lyu/fcwy9WrDimr8XhTn5SBCHocRENetRFFWfHwJhgkhCEHZF2CsZ+jo4HmFWtW+e7Z59FxB+Y2Jzbptkphr1GMVDJd+75A7+/527bs2Av9cK9V/UNgTD/dcYVBCMRQtLd0FyLJnNOZzG7Bvja2se4p3MTulmmLbkNt1Wi4Anxrrd9ijMaWtG6BuhOJXigewslq8yKnu10ZA4s3DSxk3G2chBwEDjREPAZBj+44EIihksJq2kXz8f60wt2XYKQgvoKWNthwzKnCXYNieAMn37qSTaNjip9mWNxSGfaP5JDVxEDVHohmxjFF4qgGzqZ+CihqhqVchgfUpNQjKco9Qzz1QIM/4VqEiqCQb58883MbGp6BdTrdu7kQ7fd9rpFjI/mazspguA2NNV9ICNbKOF1GaTyRUJ+Dx3hNnIuW1jo1cZnTpnPhU2Nh9psz+8l3O71QawG6hpUTULOU8va3h185fvfYWj44HbFwtn9Ljchl5frpy3kpXgf75yxmCm+MH2ZJO994rekcykCA9up1PLKiKrH30AxWMvXll5KrT/EZ5+9lw2JwYnP19nSQcBBwEFgDIF5c9q58e2XEkJjSmBM4VAUW0WefShpm8xNrYYNPbY8etCHdlIj1sPrIJlX8ulqlT2WcvzQE4/RmTqwpsrRCHpA0/gIOaLSbSVy882tDHfuUFOtaZnOUNcOAqouwX7G+sIRGm66isTdK+nYsZNvGQGyrzNJaKmt5Ss330xtRcUBIUxkMrzjBJWnnhRBkHu6NuJH10UmWFithUsq+XWdXaGpZF3BV71H28Nhvn3W6Xj3LkqU1X+kAkRI6FA5N8n7T19EX9zFoLfADx79Iy+um5gqmNTzivPklGAF7eFKNieG6E7H8fdswp1P4XcbhCJBdoTaKOsugi6P0nsQ06k3Jht2NH7dnTk5CDgITBYBeY5845xzaK2ssCXeRcioIqCKEtWQ2oQN3baMTCSAtmAK1jPb7doEqV3Ya/ysPEocE5fLUM9eEVozDB2vx/aEEQ0E+SMdVh63Sz2rRVo9lc6qQup0JkexWCKbzSv/FftniXy+SC5foFgokpH/KxTJ5uzfyTZHMvy6zpu0MhdFI2T7u1UaNxCt3Cdy4AtHySXjGG4PJibTP3gzW75+O1sqavhxKnckH/+q+545Zw4ffetbqQyNWWMfYGshaG/7939n6ASsQ5gUQVCsL+y1CxNNi3yphF/aeIDOYDMpt0geH3zcNHM6N84UxUVV5QcVldA8FcIRyOehcxf0975CInT3EaW7YebFmHjoGdjK9zY+waOrntz9a5/bjdc15jNQNsmVCqpe4mBDL+QIdr2sqEPY58KM1tATmER043W7bZ0DOwg4CBwvCHxk/gIuaGmxT0dWWWefBI9tsKMHotMSC8P6bpDobMQHIT/l9V38YtNGtTjxu1wEXC718/vrX2ZEnpWTHB6PWz233W4X8nchFT6vRxEMr3Sijf1b0rUBv0+RDfkpBMMvnV5j0vQqpatryjlW9pGfyqxubMj+pmmqAm9Lk8e8rniP/Cnv6mPayidxmWUs08Tt82OWy3iDIQqZtPo/zTAoFwrqmEIWpP7rp5abl+Vgr+FoCPi5Yv58rr7scsTk6lDj+hPUAXPSBCHidxHy2XUIkmYQoSS5KXr89cS9lQfFuaCV+fyiU7igqRkiUWiaCtHovtoJ8jJfvwZGx3wO9j9aZS3lBRfAQ89gDvTw5cwWHl73otoq6g/QHKmizhPApxvkzTK70qNsHj6YcpiFd7gLb7xP3fzVIR+D0WbinihyS7+eXQqHuhmd3zsIOAgcHwgsq2/kk4sXo0mYXPQO6qLQOWw7r4pey1kzYdU223HR60I7fTrWll5uu/9x/rBt2/EBAjDPgOtcYGbTRGsbSAz0Uh5vZ9Q0PF4fpVJRkQT5I0OiDMmRIe7yhFirHfolPhGwXJrGsoZ6PjJvDmExrWtth6Ypr7qrE0H40avio4nU8vgWSjBJWK5lkSuUVFeDvEwHvTEG/TUHPJApwX13mS8uOYezzz4L7SC5HrOnG33bQSp3XW6s864EPQBfv0Ox7D/n+vjG5mdU6+X06jo+2bqYRl8Yu0kQegsZPvzCPeQti0KpSKFcUmmGkiiZmSUqd61Ht8q4dI2qiJ8tsXaqGppZNGsujVV1dPb28OLalxgZHT0hC1Qm8oVztnEQcBA4MAJVXh+3Lz8Xj6zAxVZerNmn1cKz2+0dpCBxOA0DCbuL4YwZSkxpQ28/n/zjva+JWNLRcG1qy0XeZ+WIVlarDgb5UzttNv1bN6juhXhfF7rLhdvjw3C7KWQlmmCRSsR5UPfwbLjqNTkN0aZ4z6wZXNPeuqewXSLZi04FUfA9yMjk8/z1l79MKvf6pTpekxN8HQ4y6QiCBHpqK/zKO2G8UFHCUHF3hJ7gKytAZc4irfmpWUtY3DiV2NmnYEjb4X5jeGSIzKonaQ6/Mk1hmVDaVcY4dQlaJIR270qoCDJAmf/c8Ryj5QJvrm7litr2fToaEqUCn9uyUn33AprBM307SGl5AoaLimwKs2OLCn1VBDz4oxWcffZfMzfjxlNbR6llKgFfkGQE7nz0Xh5/ck8q43W4Ds4hHQQcBI4jBKRz4WcXX6LqAJRYm0QIlrTBU1vss5QHzxkz4amxFkcRUkrlKA4muf7ee8gcJWJBR3pJZLF2486X8ZXL1DQ2I4Z80t4oWgjjUVr56Q9XkEmMKMIwuGsbQ/29rIk18kSk+kinoPaX99VnFy3gnIb6Vx7P44VQGGThGq2EwL4dduJfccs3vzlpCf3XZOJv8EEmTRBkvjVhH26XLZgkq3cplsm4AuwKjeXZ9jspWbV/bf4yGnwhtox2UGyLcf7yS/bZarCvD+/LawiP1TTs/mXOxNqSg0wZ3AZaKADid+7zYmmaSiXkyiXCLo+ay95DTJI6cklibp/SOnjHc3eyMFzDdQ0zue2xX7FtsEOlBGsiPs6cupTTahaQS6Rpefd1RFraoTNFulqj4NP49+99i+dX2+mMAw25ycUhMX8Y+cE3+B5wPt5BwEHgNUbgHxct4Yz6vV5GIorUPQqDY4WJy08CKUQU0Tm3oUSTzJWb+eDjj7LzOCqGq7bKXLNtnc2JNI3K2jr8wRBWuUw4VktyaJBwdQ3x/h4yqSSZVIpSsUBHrJ57orUS6z3iIVzsq6cv5ZRY9aHsBGFKC0zd12V4xUsv8YWf//yI53EsHuCwCEKF303A56ZQKiv9Ia/boKC72aYsn/cdEj3I6UW+MnsZ04OV3Pni71ndvZma6lqmtM/h3GUX0tw0hXAwjC6sOZ/H7OzE6E9AWoNE2W7/kSHkIei3f07CgElySKOFJAP5JB7doGOom68//BNMyyQq5+Jxce3sy2kMNtJ+2dW4ZtYql0YMabE0yPQN8/S65/je735JfyJOWUIaY6N1agtvuegSmsPVGGWRVi+xKznI/91/D9093cfiPeHM2UHAQeAIEZCiQglpj/shuKRuK19UxXvyx1cZRktkVRGgO+CjXChSKpTYnrRNm46XcVpyiIX9Xfucjm4YGIZ0WOiqQFHaH0vF4u407s7qeu6reG3IgdJiOGUB5zTWH5ocyCznLoDovu2OX/+//+MPq1YdL5dkUudxWARBnB0rgl5KZZNy2VR1CCXNYGt0hlJV3HtIiuedrbNYVtVMKpvgB6t+Tr5UYDiVoyC+n6LQGKnkE5e+m+pIlSpQCRYMQoZd56CKecYVteSFLX8mdql3T0M+byg/qgoihRT8+Ok/smrHGnUoiYZU+yu5dsabIWvS/rZriZw8Das3ZbcjuQ3yL2+ntGktz6QHuLd/O0/37lTHnj1zJje99Tq88SIRX4CYmEx1JRlxZRnwFfjOz37I9p12z68zHAQcBBwETjQETkuPsrB314RP++XqBh6rOHAt24QPsteGl05p5uML5k7sjSFy/ktPh726GvLFIu/95jfpGDwxtXAOiyCMCyaVx6yfpZOhjM6WqBg2vZIg/MvJZ9ASiHLf+od5YOPTeF06Qyk7ByXjtNb5vPPUy9A1XXUQ1PgrMbQ93gv7yCRP8i4plUsM5EdVcaKMHUNd/NdDP6ZklokG7OjBm2edz3TfFHzT2mi58Rp0S8PqEEJhqSKictcAxtYNaEEvo5rF+5/+A4PFLB9//wdpKPuoMUME6yqJtNZBXxqzVtp3LO57egVf/8Gtu1stVbuPpiuS4gwHAQcBB4HjHYGQZfGO7WvtLo5XGWXd4PmaRp4PHbwTbrJYSSvjD5cvU3o2Ex5Si1Ads6MI/gArN2/mn3784xO2SP2wCIIhgklRv9JCED9zIQjKsCk6E1O0CsaGdC8U9CL/MOM0Zvsj3PrEj9g5NGTXLORLY+E3jY+ffyNtMVtOOWj4iHhChzZxmsAVFw2E0UKCvGmLjZTNMrc+/mvWdm/B4zKIhb24dIO/PeNvcOd1grX1NJ6/nMKuPtxmkHLMg1FfSXbFiwR0Cy2bYMSA9z56JxVNDfzdNTdQ3j5Ea7ie6nZp33RjWRqaz0W8o49tQ5189bd30NsnrZRQE4oQ8vroS46qCmXBr1gWjTRHimkCl9PZxEHAQeAYQ0AWRZcPdtEYP7jibcrjZUV9K53uQ0v1T+b0b5k9k7dPb993F4kOiL5CLntwvZ2xPSzpenjiKbYPDU/mY4+rbQ+bINSMEYTiPgRhBuZeK/+yZrKkqoYPtS3igQ0reLbjRYolU0UPxl+JbVVNfPjc6/G43Ej8oMZXgbGXc+Phoi1iHYliikzZFhWRF/KDG57i/9Y8rG6MypAHn9vFtOpW3rbwCsq5MrU5DW8iRyqdI3j5FZQq3HjPmI02kMUKigKai02bNvCRb/wrSxcv5trTzqe0Y4j20+YTaaiBgTQk8miGi3Iix/ZcL99+5DesXrcWv8fLvOpGbmiczYqRTnZkk4oYdKfi9CYPovtwuCfv7Ocg4CDgIHAUIXB+fIC24T6MvYTrSrrB5lg9j4erX5NixL1PN+AyuGP5MmLj7YsSRRC5fik+F/0DkejfshFepVtkRzLJLY+uRNyDT9QxaYIgBX9SlFgd8lIy7VWw/Nt2dJxGSbeVDGWEXG6+Mu8sKBW4beWPyJfypHJFkjm76FBSDB8770baY80qhBNyBYh4gkccPZBjJYtpUsWMqjuQfz+w8Sl+v2YFknKQtEJF0ENNsIobT70Ov9uHT3dTVfZiDYyQ7huEhQsJn7sMa0oISiaEvJT7R9m5ejXfWv0wLo+L955zOd5UmSlnLEKTNqaRHFpNECtfouPZlxn1FfnOvb9m647tnDZ7Ln8bbqPZHUDO3hzLxHTmU3zg2btVJ4YzHAQcBBwEjlcE3JZFo1mkvpBjvTdIWtMp75eSfq3OvTEQ4IfLz7I722rrbUEkIQZ7j2IRnl0FBzHD+tSqZ3lm4MSsPRiHaZIEwVLFiVJDIMCLUJLSA1eFgyiCUNzL8tml6Xxwxims2/QIu0Y7kZqFwUSWcavvabFmPrT8etxS0YpGzFuBSxzPjmAIGRBikCxl1FFS+Qw/feZPKq0g3QeqrTHso6WqibedciUBj1+pKlX7ongxYDhOsW+I0gWn47/wTKxsEXbG0aoCWENpihs38N+p9axZt4bPn/9WYpv7SMSqGTQ1Tlq4iIyvRHBqLTtfXE+PleCuxx/kqnPOp3WoQNO2foinlZaDUnPyuMm7Dd6x4peMFLJHcNbOrg4CDgIOAg4CuxenHg//8eZLmb1goTL4U9L+ew+l2rsWRkcOCNrLI6N89MmnKbyKVP+JgPakCUJd1K/IgZJazpfwizzoGPjbwvtbPltMKacJJTtVYV46XyIh8qIijOH28ckLbqJuTAgj7AoQcgeOKHogc0qXsiSKaXXtBlMj3PHU71UtgBqSWgh6iQb8XL/4apoqGtR/BwwvUU/YLqRJpiGTw/rku+194nk0jwHiP/HCJsprXuYO3xAb1q/ns61LqciUGPW56QuH0YMh8vEE9R6DbFMFG8wkzZU1eEdyNG/qxHPDlbB1AE380M0sZvcAv9n8IrdtXHXcqKadCF8a5xwdBBwEjm4E5J307osu4h3Llx9wopu2bmVm79h7Yb8ttsQTfPSpZ0hJhOEEH5MiCMLBYhEfbkOnWCqr3Izk8cfH9nAbeWlPHBvubJzWXDdS1CipiMFkTqUlhGBcu/BClk1frAiBiBhJ9OBIag8UOShmSIxFDoZSo3z/ybvYMWxrEcjvI363snRe1DyPS+ecr7omxOVR6h5cussuWsnlYTSJ1VRPOZVFP2UxxIJoonS2cjWsepHuqBeXx0Ot5UKTIsN8kWKpRG9bA950lliuSKoySGJwiFgBrGmz8DU3oM9pgHgBIh5l1JK99zE+9uTv6BoeVFLQYn7lDAcBBwEHAQeBI0dAXC3PW7iQG5Yvp7G68Lup4AAAIABJREFUWulPjL8LHnjiCS7Qyvu0P+bLZe7v7Oa7GzaSEgErZzApgiB4jbs5ZvNFPG5jH/XCHaFWci6/gtXIJgkMbKEx7FUkIJkt7K49OKNtATcsvWx3tKDCHSLgtvc7nCEFiJlSlnghpY6ZLeS5feVvWN83pnkujmhu0W7wUBmo4OZTryPota2po+4gQfe4tKZlS6KmMpBIY6az0NCA2dOHXlupRE0QmejKCFxzHjy33iYVDTF4ai1WTSXMaUWTf7+4CVa8oGoarFgt+lsuwqoJQE8KGsLQNYT5h3v5czjHCx3byZRLrO7vJHcoy+vDAcjZx0HAQcBB4ARFQN4Jy+fP59x582irrycaDKr3VnJwgEAux8i2LWwcHuZXW7ezJTGmdHmCYrX/aU+aIEhxoselkxEnR7eLkth2GrZi2DhBMLJxvH1bCRjikmi3Qw4kcqpSVQoSP3TOO1TXggy35lL5f1nNH86QbgWpN5C6A5mDtDL+7Nk/8+T21bsP53PpVIa8KkJx3SlXMi1mS2m6NYOYr3LftIa88EVF0WNg5YpguLBE4rl/GE2iJaLkeOXZUFOxp01GmKmIOdlCBzbJeOR5eHEj1nAC611XoU9txEoVYDSLJsUyg2nYvBmrtwM8HqyaKPdocf77d78i58g1H86t4OzjIOAg4CBwSAQiwSDVIbuVfiiZJJ62U9LOeCUCkyYIVWEvXkMnWyirYsWRTJ6qoFfJZgpBKGdTeAZ2oGERC/nwul0MJ/NkiyUivhCfvuhdVAWju2dS6608dGGivHilGlX80/cqNhFyIBLK2fIe448HpJXxpYd3awv43AaVQY+6GS6efS5LpizYrb9Qc7CiyNNPhnnT7M+TP/Lyv+cpGBwFIQnvuFB5QahxsCpcKW555AWs5zdiXf8WWx56KIteHVC2ruYjz6I99TxaUy28aT7Ma1cE6qaPf5iR+CjpjF1k6QwHAQcBBwEHAQeBNwKBSRMEEReSiEGuWEYUFZO5IhUBO43Qm7Uo5dJqZS2/qwkHVFqhZySt3rP/eOnfMLdxj+NixBVQ4f3xIseDAZAzNB7p28E5lU34x7ocRAlxJJ+gKCJIYxLKj295gTtfvF+pJMocAl4X0YDtHHl66xLOnX4mkpeSEZHUgst/4M/2e2D+DAj4oCkGfh888hxsHitqiQTsSIKkGs6af2CSIJGITB6zY4jiQEK5tHlr69A6O9BPnYm2dhvatp12qqKhWhEgVUeRyaiCzs/953+onx3dXcSPI/OWN+Imdz7TQcBBwEHAQWDyCEyIIFwxNWKNF3jURnwYuqYIgqQa7MW9nR4YSmbIFsv2wlopF0pXXwH5n7857VIum3vG7m09mpsqX2RCqYUVw518ae2j3Dx9Edc1zKJgFhnNJ5WNtAwp8Pvzy49z3/on7ciBaCr4XIT9HvV5pzTN48JZ56h2Shl+3UOFN3JIYqI2FpLQXAM7eyG/X1WrRAWuu8D2bBAtDalR2DuiUDaxElnM/lHKwym0jTswXngZTQhVaz1ctRzqDux1XiwWcbvcdPR288kvfZG+wYHJX11nDwcBBwEHAQcBB4HDRGBCBOGC+qAVVO2MIARBVvyFYll1JIhx07jN8kA8S6ZYUHV7koIYN2NyhSJ8+vL3sSBi5+1FH6F6El0Lv+vdwne3PsfVLSdzXW07iVJ6txJjT3yA3774IOt6t+6GIOxzqW4F6Uw4teUUlk9/0+4OCbfuosoTfYU19GHiB1PrbMtWOelTZsKUOpskyL87+8XeEUvsqftHsR56Bm0kjiYRCaljmNb0iuiDRBEGh4dIpJJouk42m+M/v/c/7OjsOOwpOjs6CLhcLvw+/x5CPt4WPi4SN/bvUqlENpdF0nfOcBBwEDixEZgQQTi3NmBJi6AskEUHQV5ihZKpFBT3Tg8MpXL0jmSUINL4c8dwu3BPX0AgEOVjMxdxUriKCncYr8sO/R90yAtWVuiWxf91beS7m57li/OW0eix98sUcjyzc52KHCRyqbHDWFQEPMobQgSQzmo7jaVTF+6OWhjoVHkjuI39FLVeq3vA74Wrz4Wgz65b+MPj0DWgCh5VZ4Q8cz0u2y3s5HZYOANC/rEUiR35yOSy/N1nP013v+3fIP8nnhLOcBA4XATkO9oWm8L8QiOVOR+IYZhmUdZBN8Fl6UrdU3NpbPMMsba4g5HkgQVkDncOzn4OAg4Cxx4CkyII4q1dG/Wpl79EEMTmee+RyhbY2r+nTUTC+/7mNkqVtiDR5c2zeP/s0/CWQT+UvrVl8UJmiB3pOC8MdfNE/w7Oq5vCO5tmsX2om7tWP8jO4Z7dxYhCXqpUh4VBpT/KpSedT1v11N0ERhZIErXwvF7kYByI+mq7wFEIwco1dmFjXTVWJAx50OLDKGEImXDAC1edA5EgL61/mZe3bOKqiy7l4Scf56u3fefYu5ucGb/hCEhaKuALqJ7v8UCWEIQFlbM4c10NU+MRTEvHMEXMUzpvTExdoyhEVC+zpnmExxt30h3vU2298jW1MJXOhxNZeMMvrzMBB4G/KAKTIgjjNs8yQ6lBkJX63kP+b3OPOBXakfNgrJZiw4zdYXR5aDUHopxZM4X3tNjdBOoJJGP/bgDL4itbVnFv12ZFAnJakUaXixnxUTb279jHftOl2+RAnBln1LRx2ckXEfKOaxvIKhxivige4xBRi9cKejmnQgkSKSyJlCw7BW3+LOhIQqUh7AjuftSuaaitoG96PV+666es3biB+SfNwSyXWbNxw2s1G+c4JwgC8n1qj03l5HQ9FWU/hjiGWkXESrfJV8ciTxsB00vJALepYZgalnTo6lJbY6DnoM9IsSq/hZRpd9Holq4URnvDCV6wttM/cmJr058gt5Jzmg4CCoFJEQQRGxI9ASWzXLBNj/Z+sZfLJuu7R1VIPBStoDjlJKUjsP9oCkT40alX2tLGYqbkcStFQlXVOD4Mg29teYa7dq7DNEu4RjoIJkfRrD3bKIMnnxupOfC4PFw59xJFEPb3cxCVxtc9crD3SUpKIJnGGk3B+ReizWyw3SBF/8Ctw/ZuuPcxtGgIU9P4+suPc3fHRsf02flSHjYCEq3z+XycVruA81bXUpnxUaKMV5RLLXBHI0xZMJuiu0zJKNlmYeK8qkhECQ0X/pKPcrJI57NrVIos47aUw2qwpLGhPs4907axsWcLUkAr3z1nOAg4CBzfCEyKIAQ8oka4hyCIxsB4B4PAJIJI67tHcAfDWM0zsdx7ZJf3htGjG3xkzplc2DRdmTT9fPtLDObS3NKyAL9uYHrcDBVzfPyZu+np2453pBujZNs2y5CHk8fQiQTceF0uZtVN44KZZyuVxL2HiC9VucN7yMHr5Bz2iltEyI4IJI0ksK44D33RHGX0RKqIFvRQ7hqiY2gnL2xfx4s7t/Jk/y5KexGf4/uWc87u9UBgam0TrdlKFhjTeZM1nVLYhXtuPUY6T2nDIL6SG291FZYhHUYFipJj0CzcZQtL2oQ1cWQ10AplSn1DFEMazKsHrUz5xX6ShTKPlV5io9XBDtcI/aNOJOH1uI7OMR0EjiYEJkQQltcGrKj4GHhdRMZ0BSRKICkFIQnjXQzy4t5e8FKsnmKH1l9liP+CRBK8hsGO1KhSZPy72afx1qlzeHG0j39+9l7KvZtxpUeU6NL4kNR92OdW3RNCCM6bcRaz66a/wsdBVBIrND/uosgnl5RaIV63Lbj0ehMFIQhDcVt6+earUH2eQ1m0qAcrV6a0a4idxUG+8ocfs3X7tqPpfnDmcgwiIKmFJc3zWPhCgOZQMzMXzyU+FarOacedNkk+uIXoqIuy5UG3XLg0i6KriGaVcIv2mOlWviol+XIZ4tRaZrjKwn/hDCw9z8iD6wl3unj5kafYFR3hmfZhNvbukTE/BiFzpuwg4CAwAQQmRBDOqfFb0h0grY7jwkN2xMAmCVKLIA8peY3vDLWQc+2V/5/AJMY3iXp8XNI0g8d2rSO+cw1GIWcLKoxJDMjni/iRz+VhfuMczmo/jbAvtM8nyOZ+zUOkZKCnc3DGAqz+OFo0Bts2gYggjRdJTGJuk9p0LMUgKRNryXxKQ3Fcs+ditUXRRGRqw066tTQfve0/SToiSJOC1tn4lQjId+/Upvmc/myAyrZWFrz7EgajaYxGH6Eei/wD2wmnJELgolQskc9nKeplzLJJAYtyycRlakQ8AYKBIGXDZLhWw3/RTHKBAmb3EJU7NFZ/+3463MOsmj3A+u7NzqVwEHAQOM4RmDhB8LtVW6MUA463NkrEIF8s4zJ09UcIQmewmbQ7fNiwicmTv38ruqghjgkuSZRC2ixFBbEuXKMkk5srGl4hdCRtjBF3AF/BQssWsapjcMWbIBRBG85ClQv6RuD+J0AUFV+vSIIqUixCPKUMn7IuF6VTTyWTSWDObCRZzPJU1wZ+9OtfHjZOzo4OAoKAYRh4PV4W1c9h/iqIzp/GvI++lWzERCtY1HS5SDy0hUDORDMtcrk04nRqenRcfj9xs4BVKBAs69S4gkQCYfK6STpmEDl/FsMVBUruMqGdJZ7/zG9IaRmeXTDKmp5NFAoFRy/BuQ0dBI5jBCZEEJZV+yzxM5C2J5FaHhMrxO2y5YEz+RIhWZkDPYEG4p59awEmip+RTRDo24Zm2eRAIp4SuRBi4nZ5OattCWe0LFEPRWXVLLnTMY0An+Eh4g6hmybacBJ1iEsvQZtWbXcUVPqxShY88jTaxq0QCrx+BMEOryiSIAVdG05uo1goSvs5elWYHflhvveTH5LJZicKjbOdg8ABEWhobCA9kmFmroZFnRGql8xk7kcvJ2vlyb80QGzER7krrgoNXSaMFtN0ZYapn9WCJ+ilY9cu8iNZqoteatxhfMEQRZdF3l/Gag4xXGESmNeEZ7jIM5/8CblUgsem9LIrMILb7WZ4aNi5Mg4CDgLHKQITIghnVvmsqqBbFSTuXb0stQDSRZArlnanGXr9dYx6Dywf/GoY6vkMgb7N6FIvALh0jaqQR0UNyuhEpyzi0/MvxOvx4TY8uJQbpEYiOUxIt50aVTZCVA0HRlTBpPbea9FqKzGf70GLBaFQhs4+eOFpNPFReLUIwvjvxNmxVLK3ba6FWAWs3vwK46hXnNtYlbdYUffOaqCnNkwyk+KRp5/kyadXKeLgDAeBI0FACHJzyxSee2gV8xL1XFO5lIqlM1nyib+ilEwxet8G6tJBDFNH7sOSBNAyowwVk0ybNY2OndsVkTU8fvSRPI3+aoKegPqOl40SOXeRTFSj/rz5lBJZHv/nnzI42M8d6cfpqkuyZMkSOneN+ZMcyYk4+zoIOAgclQhMiCC8qcpn+d060sWwd9eCnJFEFly6rlb7hqEz4KthyBeb1MnqhaxKKxhFu1PB59ZVrYMUP0obYLe/kVhVC59feAHr4/1kSgXu697McD7L2bUt/L+2RYocmF6P8mXwdvajnbEQlp+KlS+hjeSg2o81msVa8Rx6X7etdjhOAg6gxZB3u+jIxBkt56Fksujcs9AXzrT3GU7Auu12u2KuYJ/rwfQcgLRZ4tMbHmXTSL9DDCZ1ZzgbvxoCQhBaW6ew4v4nWJCbwg3h04m1TOHkt52lSK21PYUvO1aUq2mUNJPRTIKhzCieigAZK0ckVoXH7Wd4Rw8N/hhBQ/QTNBXFs3STrLuItz1GPpNnzQ8fpDc3zPfiD9FXm2bJ0sV0dXQ5F8lBwEHgOEVgwgRB8gqyqpduhnGSICsNeZELcRDvhaDPzYA3xpC/ZsJwGbkUvoEdu9sYhRyIO6RScQP6fXWM+CrR0PAZbnIqwrBHyvmMmql8fv65Ku3wix0vMdAQ5RatHn+mRLmxliFTp3b2HMyZFYgejHXbLyg2xdAyOTzZvC3n7HZhGQbauKeCrrN1ahSzvZFgKMSDj62gCQ/nXn0l2pgbpCp0TGfhpS2wdpuST7YkvSEdDAeITGzLxPm7Z+8mb9oREmc4CBwpAkpCua2Fhx54jJNyzbwvcCatFY20njlHpQl004dmamgizGVZSp9rdGSITDFDxmMSbqvDHQ6Q3t6LmchTX1mPGw8u6YWUFJluqysWXGWK6SJbH1nNjlI/t6ceoa8qxamnLqajw4kgHOl1dPZ3EDhaEZgEQbBPIeJzqZqA8TFujJTIFIgGvQx5qxjw1x3yfLVSAXdiAG9yAG2sIFGEmIRwCDmQMeitVmTDGm9lOMBRpV3y1Jpmpkeq+fm21QRCIT579Ttp7c+RyBeJG14iwQhZijS3N6ENjpCojeIdTVOzpRctlyEX9XP7pmeY7o1wcf00LJ8H3n4BungmSAQgk+brt36HOe0z+Kurrtp3FuUy1uMvseWldfypYwPvbV1I4ADiUGWPm+sf/RX9u30jDgmRs4GDwKsiYBOEVh65/1HmZ6fw7sBZtFY00/6muaoTQTO9KrJnamUKVlnpIg0PD5Mv5SkZZYpeDVOHQNbEZbmoisbwGT40S8cUeq5bWJYk+MBKlVjz6LNs0wa4PfEw/dVpliqC4JiIObepg8DxisCkCYIQAukqkCERhLDfTcTvIZ7JEw0cmiBo5RKu9DDe0R60Umn3Ytvr0qkI2mkFiRzE3VH6AvVYUtk3yTFrxkzecdXVVFgeyqMZrGyB6lg1fo+PXDKDOxqkdloL2s44mp4lVx3k1j/dybMrn+Cf5p/H1vQIU956IXNnzd7dKSFeCV+//Tb+65++QGVFhTr3canoDWvW8oVvfI2+bIobWudzU8t8pYW/97irbwv/s2GVI4g0yWvpbH5wBJS0clsbj927grn5Zm4MLqO5eirTT5uHoZVxl1wqXWCKMboOpTEzsGK5gKVbShJEooEeqefRRR/BjcfSscoWZbdGUStjGBouKfhNmqx+bBVbtV6+n3iYvliGJactoWOXQxCce9RB4HhFYFIEQV55lUH3Hqtky1Iv9YDXjRg1BX0ehn0HiiBYigy4JPc52oteKuwThRdVxMrQHnKQdEfoDjQeUZdBNBLhvHOWM72llaDHz/S6ZobX76Qt1EigpQatwgsFE0JuckMp1nVu5t++/y2SiYQq6JIK7TMWLWHZqadz9qmnk8vned8/fEKlMq67/EqeX7eGWe3TWLb0NO788x+565671T0ScLn536VvocYXtEWZJOVgWXx310v8YvtLx+t95JzXG4CAEIRpbW2suHcFJxeauCF0Ni2VLcw+VQhCEc3U0fKQ7BtBL5TEbUHJK5d0C1MzlVmTCCqKiGfZ0JSssqtoKyzmfRBpimGJTrOmU0qbvPTok+zQevh+/BF6YlkWn76Uzl273oAzdz7SQcBB4C+BwKQIgltqEAK2VbI8nCR8GQv7lAZCIlsgfACCYBbz5HduIWKm8Ltf6cvgMjRiIak5sCMFCXeI7kDzEZGD/YFbOH8+N51/JfnN/TTWNdC4aDaMZLD60ugtleQ7htmS6+G2R3/H2vUvvwL3t7/lrdTFavjWHd+nPJYOebWL8+GT3sQVLSfx0nAvdb4Q9d4A9/dt48svrfhLXFPnM04QBFSR4vQ2VtzzCAuzTfxN8GymVtgEAVeRkjg6Jiw6ntuEO1fCZ7komhIdEGpg4TbFtEmEPjUKSoLZwmWaFClTiBi0Lp6D5ZE0hE4pU2btoyvppIcfjD5MV02eRQ5BOEHuNOc0T1QEJkwQJHpQERCxIp2Q11BtjRJGl84FaSlM5goqxSB1A4P+WiwhBp3bKI4MEvYaSidh/7C7hOnF8En8HSQiP+KpoN9fd1hphVe7gItPWcQ7z7kM92iemecsReoWGM1jeXUoWOS7RtiV6+d/HrqT1WvXvuJQewtDTeRGceuGIga9IvrkcvNXLSfz566N9GfTE9nd2cZBYEIIyH3ZMq2FR+97hMXJVm4In01DrI6TT5uHXtCI7xiitzTMgxtXkrZy5I0ypst2UJWCRd2UqAEYVpmyLrUKqJ+WpVOjR7h01tlUmGFiUxvIlrKsfmwlXfTxfUUQcmMEwUkxTOhiORs5CByDCEyYIPhcOiGfS7U01kR9+7zsRShJug8kCtDvjdGftch1bcdjFpUCome/yIHYM4vQkUQPREdBN3SGvDGGfdWvOTmQa1JfV8enbv5/6L1JGpubKQwlqamsRW+rQB6RW1Y+T6rC4Gs/v52e3t5j8DI6Uz4REVBFiu2trHjgIZsghJbTXNXA3CVzKaQK7Fqzmec82/nBpj8xbORIu4UIlHDLXS8+z2gqeiD1CYowWDZJ8BQNZpWqee+MK5iar2bmwgWkjTIvPPYkXXo//zvyIN2xjEoxOEWKJ+Kd55zziYLAhAiCCCVJasGtogd7DJsEJIkeiPWztDjK6EyV6RkYxWdIvcKe1IE8jmxJZvC6DFXoqJQQNUNFDRLe6Kt2KxzJBRHi8skPfoQGAhS7RygPZ2hunMJIfJiKua2MJkd5rn87P7rzF5SlZsAZDgLHAAKqSLG1nUcfeIB52Ub+JnQ+U131NDc3MWgl+cPmR1kb6OKZ0Q0k9TwFjzg3SseClBlIQkG+fxIykD/2CbvEKbVkUFUOcnrFyUzLVHHlgvPxpV3s2rqDrd4Bvp98gL5YisWnLnEIwjFwnzhTdBA4XAQmRBDOjolZk1u90KtDIn28p5agUCyrtkR5+cvYNZCiL5FVdsxRKWD02AZLdk2/pVzjPC5DHSNveOn1N5Bz+Q93/hPeT070vW9/p+psKA2lMFN5VYzlqg4zYBT43q9+wsDAwISP52zoIPBGI2ALJbXzxEMPMidXxw3+82gpVhPx+djgHeA/d/2eXf4RTKNMXithuiwMqUsoCzXQKCuDNbtLQaUWxuyfRZK5oLvwln1MT0X5yJyraB+JkhvJsSEwxHfzj9BXHWfxksV0djo6CG/0feB8voPA64XAhAjC+XUBS1IB8pavi/j2sXcWsybRRRjP048TBCEDQg5mN0ZV6iGZK6oIhEQOSrpL+TWI4uLhtDEeLhg1sRhvvvAi2uqb8WousoUcm7p2cveD95NIJA73sM5+ryMClcDcgI/qXFqltVLorNcMhsommXH1ytfx84/2Q9c3NDDc38/0Yh3n9rThzxl0M8yWwDC/HXqKuDdvKyMatm+JLvUHqvJAogeiriihA1MVK9phhLKqByoYGpbpoiHr5y2NpzNttIq2UjW9kRz31m+lyz1MKBJiZHjkaIfImZ+DgIPAYSIwIYJwWXPYkgiBPKDroj71URIJkNVINl/C75Ospj2EIPTGM3hdEm3w0VQd2k0eypqu9A2G/DHK2is7Gg7zHCa9m+rAEBln09zHW2LSB3oddji9rl49vlOlEqbXRSaXI58vUbRMiuUyJV3DLEnrpK0nKcqOZrmsWjPzx1F6RO6nMzSTiwopIo1N+OZNIzy9jdzIKPEX15HZ1slDlovHTZ0TWZtS6Rh4PCyun8vJT/voTvTzi6HH6Q9mKbiLmLqt7CmxgvE6A5VeUOk9KGtQNCxCeQ3paMy6LEq6iCNZGBi4iy48BTfTczH+pu5siHl45qQ4a3s2URI5Z4ekvQ5PAeeQDgJHBwITIghvmRqx5KUqhKA26lO2AyPpPFG/h0K5rHQQxsfOgRQjqRwVQTeNlUFVoFjQRYK5hrQ7iKm/ccTg6ID81WcxJRTiO8vPRQv7IZlFu3Ae1gNrQTD2ukC6RiwLazCpCIL+ppmUV22hUChy04MPkD1OSMICt8GHp0+je+t6mq6+lM47/0i0poHEQC+a20X9lRdhlkoMPvgM/z2apkukr0/QId/Npc0LWfhiiB2pXfx09FFGvQX1PTUNE1NEkaQIUSUWbJnycbTszgUDd0nHEAVFTTQSymiWKDHKhrpSFJ2eqeCWyuVYVX6emjXK2q4NJyjazmk7CJw4CEyIIFzZElXPE0kRiN2zvKCEIIiCYtm0VMvj+OgeTpErlGiqDqvUQ0kz2BFuV2kFZ0wMgbnV1Xx52TJoqIDBJMydAk9vFRcryBXh7Nnw1GYolkGwXzAVVm1leyLBh5547LhY1X2uuQF9xyZO+rePself/ptQpIp4XzfBiiqyqQThWB0Fl0njX1/O8N0r+eXWnayUcvwTcAhBWNK8gHmrA3SkOvjZ6GOMekqULQ3xODVMSSvYrECRA7uBYXe7o0QOimKfjqEsoRVBUKkHiSbomLrGzFSUW2IXUIoFeGr2IOs6HYJwAt5qzimfYAhMiiBIK2NVyEfZFFe4AmGvW61H9i5a7IunyRfKNEtqQdcZnKR50wmG/0FPd1lDI59cvBjN74GQD2ojsL7bNtERg6lTWmD1LsjkoVXcMzWs7f382/PP8lRf3zEP4xe1PFapyCk//i82fejfyKWSmOWSihrIilZ+ygjU1lJz9YX0/vERHu0b5c9iNHSCDSEIi5vnsvCFELtSPfw4/hjeoI8zp87FZ3pVsmDsfa8KEaVpQYam6hHsugOpORiPMZQ1UVi06xXiRokVW16gIRvkPbELsGI+npnRz8udG08wlJ3TdRA48RCYFEEQHQSJGshQ/vIlUxU0uaV3cWz0jqQplk1OmtnOnAuvpFDZPLZcOfHAPZIzFlwvro4RGxqAZAbaa0U8AraMvfzl38kc9MXtj1nSDi/uVG2av/R5MN32dTpWx5IXnsbq6qD6r86n86e/w8oXCVRUkh4ZwnB7KBcLttqm+IE0NFL1luX03XkPa3UfpYsve02VOI96DEXRtBTE+N9dbBro4iejjzIlWss3r/17KssBTA4evbODCRZCCuyhU9Y1lV6wKNFjJfjoD/4FT0njhtrzCLZXUnr7FEbKqaMeFmeCDgIOAkeGQDQa4bq/vu5VD6KNpxik1XHveoN8saQ6GsZbHOUovSMpapum8Inv3EH7/CVHNjtnbwp330t50yaQwsR5U6FrCOJZO1Z85sw9qYagF06dBo+8jDFvLq4F80A30KT9VDdA7KzDoWMG0dTq1bzwgVtu0UMcAAAZa0lEQVTUfL0BmbdFPpMmWteoUg2apuP2+Sjmsiql4oqGmfrua0nc9RjhCy+k+fobbS+ME2SMbuzlpff8hp6Obl7w76LaX81NZ76VIB5Ug8IhRlnVKVhjTo4abgzKZo5BV5bbH/oFnrzGKcV2IosaWfrtawjUhw91SOf3DgIOAscBAuMdigc7FUUQZKVRtZ8GQq5Ywm0YGGP2zPKgHsmZfPrWn7Bw+YXHATRv5ClYFDMSLbAorXoWK5P9/9s7Eyi5rvrM/95Sr/aq7lZX74uk1r7Llq1xsBibACaJwY4tHBNQLBuQhQkOOQYGmBzCzDAJc844ZjGOwww2HBuIsMmcJIeEEMAm2InwItuSsBZLam1Wd6vV1Xttb5vzv69lSzKWWrJ6kfSuj9wt1Vvu/d6rel/9l++DUiUgCZv3BDlkw5C+U9jdHUQXapJQtiFfCH6eOCIm8T+5S5WpqfGa2+TJrpNTueJTz33owW/gbt3OwW3PY0YiGJEo5dFhDNMk29BM/vAB4tkqSqpF1Sczr4P05Yt59fv/wOIv30vN29ZMp+VM6FwGdnaz/cN/R6KsU3tNGxGSpO1UQCy10/d5eEpNMShkNKRqURohHRfd8FWx42C8giWeDv+0C395NaseuIlE44VDNicU+PDgIQKXOAIBQdAkDf66xLKwit9EEH7345/l+o/c/Vpr4yWO3Vtcvo93+Ailx34YFCMKQVg9RxUkque8dDZ01MGuLkhYELOgpQYO9ELv8Mnnjkcxb/tdfC8gDr5bCX76wU9Nk5SE9MtLR4qGpgcpitf/fvzfRTBLDP6iweu66GNMHMkoHTrEjnvuxisWVXqhuqmN/iMnOwimamoZyR9T91ztu66m78nNkgNj1SObiLW2vcVrcGHs3r+zh60feZxi/whD8yEdqWZV3XLinpJEOu0ixNcxIAjyR4oVdVWs6FIhb5XY/OpWrGGf9G4wltVw+V/fTKIpjCBcGHdGOMsQgYlFQBEE+YJan4nj+B4jJYeqhEXFcd+QYrjzvodZfs11EzujS+TovutSeuCb+JJvdz1oqgZJJbwS+EVo1yzC//fd0l6iIgbae5bj/3grekMDelMjlEr45Qp+uYQWjRF93++9OXKv9bMHbXBj9e5j/XAnNMadsF1AMMZy1+IZ7LuqaNX3A4tr8RH2JcCtXpN/d8aK54PX1XaqtF5+Cuswg5591fGioWnH22c19t37dXp+8pNg/ppGw9xFDBw5pFIMnufiex7Vja30dx9WP4d6u8guW8GSrz5wbneLY8Oxo1AugxWDGbVgTd+6jvyuHrZs+AG/3reTx/p/QUu2lS+v/TS1Tly1N55uiDnTcYKgBJRUP4NoJNi8ygCfevhLRKQGof4d1F82i8seeD+Jpsy54RruFSIQInBRIaAIgqlr5DIxhgoVirZLXTaO63qqzfFEJcVPfvMx5l3xtosDAHnIVewgfB95XethUhYn5ODbj+Ll81IFClVxmNsQpBdk5DKBLsIhed0IIgn5USjaxNetQ0skJmWa5/UkilAIYRgjJGPk49ef+STDL23HiidUFEGGFCoKuRCRKCueVKkH04riVMrB65aF1dLGqocfVWJS4xrSIdI/AKIOWChApRJ0jcg8pBC3qhpamyEaRE+m0xCC8NzGTby0fzvfG/g5rZlWvnLzZ6mrpNDO0Nkhxk1SpBiYQAcSzBIUsvUKhxnk4498Ec132DDj3bQv62DV/R8gHhKE6XT5w7mECEwZAoogRE1dmS/1DpVUB4MQBHluFisuEUN7rZPhnof/no4VV0zZZCfkxNJSJw8L+dSMT7xvhDyQKj99AufFl4LUgugdLG+Hvd1B54I8rEQL4Rc7gjlVJWB2PezuIvb7N6LX1k0IDJN9UN912LzhdtKjJUrDgxQG+7FiCRXhcMpFzGhQpCiphUTVDEb7j1HTMpOj+19BS2dY/fB3SbS0nn7a8vAfHYXeYwExsE+p3Th1b9OElmaxCJ1sOE57PkkxPPOxv+XFA9vZ1P9z2tJt3Hfz58jZQhBOX6wpyoqvRxDAGVNetA2Hw9oAH3/kz/E9l4/WXses5R2s+toHwgjCtLr64WRCBKYOAUUQ0jFTeSt0DxaV5LIQBClOlBDzaMlWbo7yQX33g5tYsPoiKw4rFqHnKBw7BjUzoLlxQr9Furt2U/7nH6s8uhq1acgmYN/RoOhMIgm9Q0E3g3QpXD5LtTia8+djXXfxFIceffqXPPGHN5PJVlHT2IxTLqMbJna5dIIWIKRqcpRGh3Edh8G+Xsp2hev+5RekZs46/bumVIT+PHT1QOUsBJuFlDU3BURhmoz+HT08c9cmnj+4jR/2PcGsVDv33vxnzHASqo3xzYemNBKki8GQVJC0MI8RBEe3VQTh7u/8dzTXY339dbSu6OCK+28h0RimGKbJpQ+nESIwpQhoN7ZnfVFQlHRCfrSiMpoiuSwtjjKk3VG0EIQ4XH/XZ3jnuo1YscCz4YId8s2yXIGuruDbpYSajw9Ztzwg6nLnPfXgDw5S+s538eXDWhEEH66UwsRXgr+LDsWVs+HpsdZH0T/Y1YUeTRJbv+6ChfsNE/d9/mHlQor5IKWQqqohlU5jmBHimaxKNYhgkrRADvf1Mjo0SGF0BDOR5D0/foLkmciBHHT/fujrCyI0ZzuEJEgr6TS5zwdePsqzH/tbthx6kR/0/ZK2ZCv/+w8+T0MlpW4hRxEAUOmEsfet7ilD02CI8EEgfhCoJ4rEhObxKkN84jtfIOLa3JF7F80r5nD5N24NIwhne7+E24cIXKQIaLfOqfarklEGCxUKFVelFqQeoSTpBTMwcZJIgpAEiSKsWftH3PLZ/3nBwqG5Llrn/iDkfLohue2Z7XgzaiZ3rWO1EVK86HuOkl/WMhm02PTLjZ8rMKWebv5x9fI37C73VzQWV+RA7rniyOvdGkYszu/89JfEz5RWOP5M7O5BO3joXKcIVVV48+ac+/7ncc+BHcd4duOjvPDqVr7X9x/MzDbzlVs+R64otShShKh6FdA9+b+hChclYiBVB2IApjiC6El4WmAIpgiCyyEG2PC9/4bpOtxZ+9u0L+lg5ddvJd4cRhDO4+ULDxUiMG0REEO40w3tzuUNvhQkHh0qMVxykHRDddJisGCrAsVsIoLjeoHksqbR9o6bqFty5bRd8JtNLBO1uLqlhfpoFO3EiMEZVrKvWOTJAye33l1wi59mEzZGh4n9rz8f/6ziCUbu+DhafeO494npOu/vmK20PM51fH/vPopnqls414OPcz8JZtRUUjjf3M6eYwd4vG8L7akG/uqWPyXrJRUp0H1PpRHEXt2yA9MmV3cVcRDCEOgpaliuHhRlSnhBtzmg59n47b9Ec0w+0nwtVS3VuH/UQR+hkuI4L0+4WYjABYtAJpNm7U03np4gfHRpvX9suMRQ0aZoeyQsXdUjyIhFDKqSFq7rY0UM6v/Tu6lZvFr5MFxI46qmRpbmcljn8LCQ72FbCyM8tXOsw+BCWvh0navvk3vkb+DI4TPPsL6R/ps/iJOpOvO2p2zRlknz3o6Oc9bteHzvHroHT9GcOOtZnPsO0ahFuVCgqs8k/f+6yPcP8uzAPpoyDWx4361YegzLM5RhU9mU1kWdmKOcmihHHJVGiDimSjWUI4FQUsSVOgSRX64w6A3xtU0PYdoWq6sXQJPF8A11DKUqRKIWtn0WtRvnvsxwzxCBEIEpQCCbzbLug7eeniDcsbjOl+6F/kLltbo5iUomo4ayfM4mLFVMbyXTdKy9CzN24bXYNaaS3DBnDuY5EBtJ4+YtnceefRHnIrFbnoJ78Q2njPTnqfo/Xzm5/uOUrezLVjP0n9+Nd46th/KobMtk+O32NhLjbWVNRAOlStfjnw8fYu/RY1MGl4T/Hn/oYWbnq7jRvYyMl8RIRkklMixYuQQ34qvaAgcP15TogI4x5nppGy6OpB5cE9P3cCwX3/WwfBPf1Ym6BnrJYduzz2GUfEpFm85Ensd5BntmhJv+8FYKRSkYDUeIQIjAxYjAuAjC7Ytzfu9wmfxw+STVvHgksH9OxSKITkLNwstpevt7L1hzpjUtLSyXwsOzHI7nsd+3eeHAYXoGRPY3HOcLgXhPF8kf/RDtaCAOpYam4TW1Unj7Oym2zz4vp4qbJr/V3MSc6moiv4kkitaEsGDpIpmRVr+7hTJP7u1kx6snzO28zGb8B5GajL+59yss7M+xPnEtDeYMauvqiBkWqdosvYlBdjlHGDDLavqmZ+BrBqJfpfmeqjVwNZOIb6ObDq7n4GpRsk6aFX4LqWKUvr5jGGWbw11H2Bvr5aGhn1LqsFh/150hQRj/pQq3DBG44BAYF0H48JI6/+hgib6RUwiCpVOfiak0g2UazF37ITIzp0fR1rlcibgZ4Yb2OaS0cXRgKMl6XXUWDNpljJosW48c5OXucYTEz2Vyl/g+8c69JHdso1JTi90xj2JuYrQeamIxrmhopNFKq4fpSaM6GVxzaS0dk5fevG8P27veQqHjW7quGlKjet+Xv8qifD23x66lvaqZxVesxB4ucWDby7xkHuTBvT/iSGwU26ioaUsbo+nqY6kE6VqQmgQby3fFhQHHtljiNHJP2/U0aDU0rlqiLN63PfUrOjnCt4Z+RmGexUfv2UilUnxLKwh3DhEIEZi+CGTSWW654Qwphg1L630pUBSC4J7QUp2OGtSLYJKuEY+a3PDwJ8i01k7f1Y5jZulikkWHZytN+tMOIQi12UBlcWz0RLrYl9g9jrOEm0x3BEQ8KDdcRcuxRiKuqdoDScUgeTJ5PBw9wKHY/ilbTr7T59N3fJX5XY3cnriGtup6Fq9eRrFg0/3yfg57vXx/57+yP9rH/kgvI9EyvibdCjpKIEmCIprIXosptE62FKNdb2RBJcf6ue8ipSeoW74A3/HY9vOnOaR1862hJ3Evi/Glh+5ET4Yphim7+OGJQwQmGIGYnmVl1S2nfxRuXNHo94+UkUJFKVI8PjJxk6aquLIJSCYt3r/pU0SrkhM85Yk/fKaYZOGbkQTp1BA/hMECZOKBQdLY6Dfz7Exum/gJhmeYNASUaaZrUDWaoc2eTdQ82cWw2zpCZ/yVSZvPqSfKd3p8dv1XmdfVzPrk25lZk2PRqsU4poXmmTiDJba/so0t5T08uu8nHEkN4+lBYaErQmfSoqx5KlpiViyW2jk2zP0dWv1aFixcih+3cKSOYaTE1qeeYa/Wzf8d/iXecou/UAQhjCBM2cUPTxwiMMEIjIsgfGxFo18o2/QMSSfD8apln5qkRVNVgqLtUFWdYu1jnyYiQj4XwYjaFh3drWSLJzwQJFpQmwnCy55PiSIx/fWCzGFjiO2pFy6C1YdL+E0ImL7JnMJ8qp3Xo2QDZp4dU0gK+/d5fH79/XT01HFn9GpaZjTRevUSxF3NdCz0QZt9nbvZPXqIf9z5b/RZo5SjIgzlKeEk+RO0OOrotskso5abF11LAxlmzltAKW7iRFwiIzZbn3yGTr2Xbw08gX15hL/81oYwghC+VUIELmIExk0QpDq/a6BEflTMcII2KbF/FofH0bLNjLoMa3/waYyx9seLATMJwSbKMapHM9SMZImLM96M7JvaG4/ow2xLb7kYlh6u4U0QMHyD1tJMGirN4jdJSS/yYvrZwGRqCoZEED5/2/3M7M3xkfga2qubmX3VEpFMRPMi6NKRUHEY6e9n744d6OLAKu9fSZkIMVA1CU4gduZBNJZgwfKleJYBUUMpMGq+izHqsuWp5+ikh0fyP8e+zORL374LLYwgTMFVD08ZIjA5CIybIIhq3dHBIkeHy6rVUT5eGrIxajMx5cWQa65h7aZ7Ljj9g7OBOVVJ0mzPotqpUQ+HU8eoPsLW9PNnc8hw2wsQAbn2TaVWWsszlZ31C+lnqeiBi+Rkjz4hCOvvp703x23JNXRUtbDwysX4IoKEoSIDpgvuQJG+zi4lkiQFitLuKMWK8qu0QEZEF0kIQypC1cIWijEPTfexbBdRPCmXXDY/vZmDZh/fPfozvBUm/+OhuzBTlTFyNDUEabLxDs8XInApITBugiCgiNWzmDVJHYJE26WDYUY6RrHi0Dyvkfc9/IlLArtqewZtpVnEPTHCeZ0oFBRB2DJl3yYvCfCn0SJnVGrpGJrL7sxOBqwzyHJP0LyFIPzX2+6n42iOdak1zM62sfDKJdgRW0UJdBFFlHifp+N7Yswk0QMJMPhomqt+93UTXb3mU9E87LiBY/gYnkfUkQe/RrnisfvlHXiz4/zZUw/gLNX50oN3YiRK4f0+Qdc2PGyIwFQjcFYEoWQ79PQXGSg5qtOrNhWlJhXF83w61izkHX/xoalez6Sev6U0k8ZKM5KbllHSCryYeS78wJzUqzC1J5M6lZ6qPkZihSmZSN8+ny+s+zrzjtbyweRvMbN6NvNXL2PEqhAVUSRXU/UIyolB0ggySzFl8ioYhqe6FyTKoOpqXqtHAFMzEXn1QBFVw5MahP/YTGZVI48MPcW2yG6++I0P40dHp2Td4UlDBEIEJh6BsyIIUofQPVCkv2Arq2cpUhQTJxFJuuz2a1l+2zsmfsbT7AzSDtk+0k5DqRE74rMl+ys8+QAOR4jAJCAgBOGLEkHozXJT5irmZuewdNUKRmM+lqOheyKZHIhLSVpBxRMkeqC6eD0838UzDDwviAqKUZm0LfuebGPgSWFCxKRSLLLl6ac5khwgf1WaXWYnd3zmnbiR0JNhEi5zeIoQgSlBYFwEYePyBl8U2yRS0D1QID9qI5YFEkFIxywsy+A9991O/bKZU7KIqT6pmOEsPTSHqB3l+Vm/xjVCgjDV1+RSOf9Ij8Gmr/0T1aNxLk8tpKXYwBK/Hc/QiVpJNN3D0W2VWtB8XRk32aNlIq6O7mgYmoEtbEFqEjMJbKeEZ/hohrzfxZTBI28Pk1gwg2OpY+xzD/NMfgdzrprN3JVZXD1sc7xU7rVwnZceAmdNEHoGi+RHK0QMTcksi2lTIh3nlsc+ReQUEZlLCc54Jcay/fN4aeYuStbUFKxdSniHaw0Q0HwTzxbzRQ2DCNqvowz+l52kKjGWXn01rlJ9dFXNgeH72CMlXty8Bb3io1c0lUqQgkY9abHs7auxIyK97KnaBbF+dss2v9rzHK0fWErpuiKl5CCO76CZGuiOKtIMR4jARCMgBNdyIlRMWwl9hWNyEDgrgiAusD2DBfpGKkRNnbpsjIiuUd1YzdpNn0I7QVVwcqY/vc5SPZJhIDkc3sDT67JcMrORgll9R4qhjTvJ2FkWrLgsIAjIw94nIo6OhQLbX9oKLmgSQdB1PGyImyy+aqXKQkiKrGTqWBgYQ2W2vrKVhg1LGP39UUqxgdcKc6eqtfOSuaDhQt+AgGVHMHydiviG6KLnEY6JRGBcBEHsnk1DR1odJYJwbKSiLJ8bs3HV8tiypJXrH/xY0PsYjhCBEIEpQUBDx3g5Sd+du4kOxYlppnqYe7qGJW2MXiCpXHZtZW8tX8SkXEYsoMV2QqQP8F3cqEZ0QQu5XD0Hn3qBkluC9zdS88kM5dhxMzKhB+E3uSm50JfqSX1IluM09udIlRJ0VffSm+nH08Mo1kTdEuMiCGL3HI1IIZNPt0QQhiuk4xEaq+KIk+GS37ucqz9380TNMTxuiECIwBkQMLwIZiGGti1K/gv7sI5pWGUHTRi8ogmBuJnoHhC3cDVpc/QDzxFNwzZRls/lShEtHmH2mlXs29tJcU8X9XNbKK5Jk7jRxM2N4kRLSlwpHCECk4GApBdiFYvmfD21w1UntZYXrRKduSMMJUbCyO0EXIxxEYT1i3J+3DKVo5t0MUgNgnQw5NIxpEnqbXdfz6K1V03A9MJDhgiECIwHAe1InCP3d5LrqWVV1XKcoTIv/eoZJZKkvmDpGvJI11Mxlq5aCVFTqS360r1guJQsn2JSpzg0RN+eg1Q3NeAXXQ5te4VF776SqlUd/PRHf4czx6V5QzNedmraOseDRbjNxYNAzLaY2dNMdSFz2kUJUdjZtD+s/zrPl35cBGHdglo/FYtQcVyVYhgs2Kr+IBu3lPvte/96I7mFLed5auHhQgRCBMaLgLkvSd+f7KK+1MziVasoDQ/ywvNbMCpixCSujRqOBmYqzoorVqJHpHNBUykHYRB9fhGtLgMjRXb9+Gk0TyOuR8XqkWV/cA1eVOe5b/8rxXk+uXtbsHPD451auF2IwFkjIBGD2T0tpEupwEl1HMPTfF5pOkg+OTCOrcNNxoPAuAjCh+bP8NNxi5GSTZ9ydHRpyMaRtEMyE+emRz9JvPpkl7vxnDzcJkQgROD8IGB2pui/u5NcsZHZq5dgOQ5U3EAcSVkvBCRB0gyWZanOBfWf7qHFNOy0xXClQK6pEUQM7cgx4o5JtKxBtUFhpMC+n+1mYJHNjL9qxKk9XotwfuYfHiVEQBCQdMKc7jak4FuKEc92OKbHnpZX6bfyZ7truP1vQGBcBGHd/Fo/GYvQN1JkuOiobKZEEORnbXuOGx76Y4xoJAQ4RCBEYIoQEIIw9McHqB+uY9aq+ehU0F0L19CULocqJ/SlFVLcmdyAIETAietE59UxfLQXd2AITIOa1jacqIU+4lLafQRL3uj9Ffb++27yy2yq7mumkgsJwhRd6ov+tHWDNczuaT3nmvfBBp+XM1svepwmY4HjIQj/HxrNGYwHH3wHAAAAAElFTkSuQmCC;" vertex="1" parent="2">
                    <mxGeometry y="20" width="816.38" height="460" as="geometry"/>
                </mxCell>
                <mxCell id="4" value="&lt;div&gt;&lt;span data-canva-clipboard=&quot;ewAiAGEAIgA6ADUALAAiAGQAIgA6ACIAQgAiACwAIgBoACIAOgAiAHcAdwB3AC4AYwBhAG4AdgBhAC4AYwBvAG0AIgAsACIAYwAiADoAIgBEAEEARgBrAG0AVABhAGUASgBqAE0AIgAsACIAaQAiADoAIgA1AHoASABSADcATgB4AGcATQBzAEIAOAB3AFQAMQA1AGEAegBiADYAVABRACIALAAiAGIAIgA6ADEANgA4ADcAMgA3ADkAMgAzADAAMAA3ADcALAAiAEEAPwAiADoAIgBCACIALAAiAEEAIgA6AFsAewAiAEEAIgA6ADEAOAAuADkAMwAzADMANAAwADAAMAAwADAAMAAwADAANAA0ACwAIgBCACIAOgAxADQANwA5AC4ANAAzADEAMwAyADcANwA5ADIAMwAzADUANwAsACIARAAiADoAMgA0ADcALgA1ADYAMgA1ACwAIgBDACIAOgA4ADkALgAwADYANgA2ADYALAAiAEEAPwAiADoAIgBLACIALAAiAGEAIgA6AHsAIgBBACIAOgBbAHsAIgBBAD8AIgA6ACIAQQAiACwAIgBBACIAOgAiAEwAaQB2AGUAcwA6ADMAXABuACIAfQBdACwAIgBCACIAOgBbAHsAIgBBAD8AIgA6ACIAQQAiACwAIgBBACIAOgB7ACIAYwBvAGwAbwByACIAOgB7ACIAQgAiADoAIgAjADUAOQA4ADYAMQBmACIAfQAsACIAZgBvAG4AdAAtAGYAYQBtAGkAbAB5ACIAOgB7ACIAQgAiADoAIgBZAEEARQBfAFIANgBrAFoAYwBOAEUALAAwACIAfQAsACIAZgBvAG4AdAAtAHMAaQB6AGUAIgA6AHsAIgBCACIAOgAiADcANAAuADYANgA2ADcAIgB9ACwAIgB0AGUAeAB0AC0AYQBsAGkAZwBuACIAOgB7ACIAQgAiADoAIgBjAGUAbgB0AGUAcgAiAH0AfQB9ACwAewAiAEEAPwAiADoAIgBCACIALAAiAEEAIgA6ADcAfQAsAHsAIgBBAD8AIgA6ACIAQQAiACwAIgBBACIAOgB7ACIAZgBvAG4AdAAtAHcAZQBpAGcAaAB0ACIAOgB7ACIAQgAiADoAIgBuAG8AcgBtAGEAbAAiAH0ALAAiAGYAbwBuAHQALQBzAHQAeQBsAGUAIgA6AHsAIgBCACIAOgAiAG4AbwByAG0AYQBsACIAfQB9AH0ALAB7ACIAQQA/ACIAOgAiAEIAIgAsACIAQQAiADoAMQB9ACwAewAiAEEAPwAiADoAIgBBACIALAAiAEEAIgA6AHsAIgBjAG8AbABvAHIAIgA6AHsAIgBBACIAOgAiACMANQA5ADgANgAxAGYAIgB9ACwAIgBmAG8AbgB0AC0AZgBhAG0AaQBsAHkAIgA6AHsAIgBBACIAOgAiAFkAQQBFAF8AUgA2AGsAWgBjAE4ARQAsADAAIgB9ACwAIgBmAG8AbgB0AC0AcwBpAHoAZQAiADoAewAiAEEAIgA6ACIANwA0AC4ANgA2ADYANwAiAH0ALAAiAHQAZQB4AHQALQBhAGwAaQBnAG4AIgA6AHsAIgBBACIAOgAiAGMAZQBuAHQAZQByACIAfQAsACIAZgBvAG4AdAAtAHcAZQBpAGcAaAB0ACIAOgB7ACIAQQAiADoAIgBuAG8AcgBtAGEAbAAiAH0ALAAiAGYAbwBuAHQALQBzAHQAeQBsAGUAIgA6AHsAIgBBACIAOgAiAG4AbwByAG0AYQBsACIAfQB9AH0AXQB9ACwAIgBiACIAOgB7ACIAQQAiADoAWwA4AF0AfQAsACIAZAAiADoAIgBBACIALAAiAGcAIgA6AGYAYQBsAHMAZQAsACIAaAAiADoAIgBCACIAfQBdACwAIgBCACIAOgAxADkAMgAwACwAIgBDACIAOgAxADAAOAAwAH0A&quot;&gt;&lt;/span&gt;&lt;p&gt;Lives:3&lt;/p&gt;&lt;/div&gt;" style="text;whiteSpace=wrap;html=1;" parent="1" vertex="1">
                    <mxGeometry x="10" y="10" width="70" height="60" as="geometry"/>
                </mxCell>
            </root>
        </mxGraphModel>
    </diagram>
</mxfile>